<?xml version="1.0" encoding="UTF-8"?>
<svg width="276px" height="213px" viewBox="0 0 276 213" version="1.1" xmlns="http://www.w3.org/2000/svg" xmlns:xlink="http://www.w3.org/1999/xlink">
    <!-- Generator: Sketch 54 (76480) - https://sketchapp.com -->
    <title>购物车</title>
    <desc>Created with Sketch.</desc>
    <defs>
        <linearGradient x1="50%" y1="0%" x2="50%" y2="100%" id="linearGradient-1">
            <stop stop-color="#FECD0E" offset="0%"></stop>
            <stop stop-color="#FECD0E" stop-opacity="0" offset="100%"></stop>
        </linearGradient>
        <linearGradient x1="50%" y1="0%" x2="50%" y2="100%" id="linearGradient-2">
            <stop stop-color="#FECD0E" offset="0%"></stop>
            <stop stop-color="#FECD0E" stop-opacity="0" offset="100%"></stop>
        </linearGradient>
        <linearGradient x1="50%" y1="0%" x2="50%" y2="100%" id="linearGradient-3">
            <stop stop-color="#FECD0E" offset="0%"></stop>
            <stop stop-color="#FECD0E" stop-opacity="0" offset="100%"></stop>
        </linearGradient>
        <path d="M36.0815892,82.8037766 C36.4632464,84.6643553 38.1006802,86 40,86 L113,86 C115.209139,86 117,84.209139 117,82 C117,79.790861 115.209139,78 113,78 L43.2627752,78 L27.9184108,3.19622343 C27.5367536,1.33564467 25.8993198,0 24,0 L4,0 C1.790861,0 0,1.790861 0,4 C0,6.209139 1.790861,8 4,8 L20.7372248,8 L36.0815892,82.8037766 Z" id="path-4"></path>
        <path d="M0,0 L107,0 C108.104569,-2.02906125e-16 109,0.8954305 109,2 L109,5 C109,6.1045695 108.104569,7 107,7 L0,7 L0,0 Z" id="path-6"></path>
    </defs>
    <g id="页面1" stroke="none" stroke-width="1" fill="none" fill-rule="evenodd">
        <g id="8.全球购物车V2.0设计-m-app" transform="translate(-222.000000, -159.000000)">
            <g id="购物车" transform="translate(222.000000, 159.000000)">
                <g>
                    <g>
                        <g id="背景" opacity="0.15">
                            <path d="M12.3656164,191.568971 C18.9621898,198.457278 29.4135585,205.332437 47.9885176,203.142293 C66.5634766,200.952148 89.6715571,193.162757 118.030555,197.609085 C146.389552,202.055412 190.040388,222.056514 215.266288,207.028257 C240.492188,192 242.421387,175.121582 239.266088,162.336085 C236.11079,149.550587 228.803711,135.751465 231.760007,119.776821 C234.716303,103.802177 228.966026,87.6551569 206.476665,84.0563382 C183.987305,80.4575195 176.537103,91.5079004 162.765032,90.0551432 C148.992961,88.602386 134.222663,84.0563382 120.398197,71.0338428 C106.57373,58.0113474 85.5481272,58.0113474 72.1984429,71.0338428 C58.8487586,84.0563382 62.9726563,101.181641 46.7519872,119.776821 C30.5313181,138.372001 14.5581055,136 4.70924265,152.393979 C-5.13962017,168.787958 5.76904297,184.680664 12.3656164,191.568971 Z" id="路径-16" fill="url(#linearGradient-1)"></path>
                            <path d="M217.692308,-1.4033219e-13 L235,-1.4033219e-13 C234.647217,4.01883639 233.493371,7.86499023 231.538462,11.5384615 C229.583552,15.2119328 226.891245,18.2888559 223.461538,20.7692308 L205,20.7692308 C208.911978,17.3798077 211.988901,13.9182692 214.230769,10.3846154 C216.472637,6.85096154 217.626484,3.38942308 217.692308,-1.4033219e-13 Z M220.5,3 C220.223858,3 220,3.22385763 220,3.5 C220,3.77614237 220.223858,4 220.5,4 L228.5,4 C228.776142,4 229,3.77614237 229,3.5 C229,3.22385763 228.776142,3 228.5,3 L220.5,3 Z M218.5,7 C218.223858,7 218,7.22385763 218,7.5 C218,7.77614237 218.223858,8 218.5,8 L225.5,8 C225.776142,8 226,7.77614237 226,7.5 C226,7.22385763 225.776142,7 225.5,7 L218.5,7 Z M216.5,11 C216.223858,11 216,11.2238576 216,11.5 C216,11.7761424 216.223858,12 216.5,12 L221.5,12 C221.776142,12 222,11.7761424 222,11.5 C222,11.2238576 221.776142,11 221.5,11 L216.5,11 Z" id="形状结合" fill="url(#linearGradient-2)"></path>
                            <path d="M80,27 C80.0570475,29.9375 81.0570475,32.9375 83,36 C84.9429525,39.0625 87.6096191,42.0625 91,45 L75,45 C72.0275879,42.8503418 69.6942546,40.1836751 68,37 C66.3057454,33.8163249 65.3057454,30.4829915 65,27 L80,27 Z M69.5,31 C69.2238576,31 69,31.2238576 69,31.5 C69,31.7761424 69.2238576,32 69.5,32 L77.5,32 C77.7761424,32 78,31.7761424 78,31.5 C78,31.2238576 77.7761424,31 77.5,31 L69.5,31 Z M72.5,35 C72.2238576,35 72,35.2238576 72,35.5 C72,35.7761424 72.2238576,36 72.5,36 L79.5,36 C79.7761424,36 80,35.7761424 80,35.5 C80,35.2238576 79.7761424,35 79.5,35 L72.5,35 Z M76.5,39 C76.2238576,39 76,39.2238576 76,39.5 C76,39.7761424 76.2238576,40 76.5,40 L81.5,40 C81.7761424,40 82,39.7761424 82,39.5 C82,39.2238576 81.7761424,39 81.5,39 L76.5,39 Z" id="形状结合" fill="url(#linearGradient-3)"></path>
                        </g>
                        <g id="阴影" transform="translate(103.000000, 192.000000)" fill="#E9E9E9">
                            <ellipse id="椭圆形" cx="43" cy="5" rx="43" ry="5"></ellipse>
                        </g>
                        <g transform="translate(55.000000, 69.000000)">
                            <g transform="translate(0.000000, -0.000000)">
                                <rect id="矩形" fill="#C4CED1" x="0" y="31" width="29" height="8" rx="4"></rect>
                                <rect id="矩形复制-11" fill="#C4CED1" x="3" y="45" width="29" height="8" rx="4"></rect>
                                <rect id="矩形复制-12" fill="#C4CED1" x="6" y="59" width="29" height="8" rx="4"></rect>
                                <g id="轮子" transform="translate(54.000000, 89.000000)" stroke="#979CA5" stroke-width="8">
                                    <circle id="椭圆形" cx="13" cy="13" r="9"></circle>
                                    <circle id="椭圆形复制" cx="61" cy="13" r="9"></circle>
                                </g>
                                <g transform="translate(15.000000, 0.000000)">
                                    <mask id="mask-5" fill="white">
                                        <use xlink:href="#path-4"></use>
                                    </mask>
                                    <use id="蒙版" fill="#C4CED1" fill-rule="nonzero" xlink:href="#path-4"></use>
                                    <path d="M21.7685547,18 L130.450195,18 L121.964845,63.8208926 C121.087069,68.560883 116.952606,72 112.132025,72 L33.4819336,72 L21.7685547,18 Z" id="矩形" fill="#FEB913" mask="url(#mask-5)"></path>
                                    <path d="M21.7685547,18 L130.23542,18 L121.861047,59.9573201 C120.927741,64.6333721 116.822756,68 112.054473,68 L32.5473633,68 L21.7685547,18 Z" id="矩形复制-10" fill="#FECD0E" mask="url(#mask-5)"></path>
                                    <path d="M20,18 L132,18 C133.104569,18 134,18.8954305 134,20 L134,23 C134,24.1045695 133.104569,25 132,25 L20,25 L20,18 Z" id="矩形" fill="#FECD0E" mask="url(#mask-5)"></path>
                                    <rect id="矩形" fill="#FEB913" mask="url(#mask-5)" x="20" y="23" width="114" height="2"></rect>
                                </g>
                                <g transform="translate(41.000000, 18.000000)">
                                    <path d="M-1.49213975e-13,3.19744231e-14 L104.219124,3.19744231e-14 L95.6901895,45.8295971 C94.8088279,50.5655283 90.6762297,54 85.8589853,54 L11.7713072,54 L-1.49213975e-13,3.19744231e-14 Z" id="矩形" fill="#FEB913"></path>
                                    <path d="M4.54747351e-13,0 L104.326327,0 L95.8825991,41.9722284 C94.9433121,46.6412526 90.8415795,50 86.0790123,50 L10.864217,50 L4.54747351e-13,0 Z" id="矩形复制-10" fill="#FECD0E"></path>
                                </g>
                                <g transform="translate(41.000000, 18.000000)">
                                    <mask id="mask-7" fill="white">
                                        <use xlink:href="#path-6"></use>
                                    </mask>
                                    <use id="蒙版" fill="#FECD0E" xlink:href="#path-6"></use>
                                    <rect id="矩形复制-14" fill="#FEB913" mask="url(#mask-7)" x="-5" y="5" width="114" height="2"></rect>
                                </g>
                            </g>
                            <g id="镂空" transform="translate(64.000000, 32.000000)" fill="#FFFFFF" stroke="#FEB913">
                                <rect id="矩形" transform="translate(50.000000, 14.000000) rotate(20.000000) translate(-50.000000, -14.000000) " x="47.5" y="1.5" width="5" height="25" rx="2.5"></rect>
                                <rect id="矩形复制-7" transform="translate(36.000000, 14.000000) rotate(20.000000) translate(-36.000000, -14.000000) " x="33.5" y="1.5" width="5" height="25" rx="2.5"></rect>
                                <rect id="矩形复制-8" transform="translate(22.000000, 14.000000) rotate(20.000000) translate(-22.000000, -14.000000) " x="19.5" y="1.5" width="5" height="25" rx="2.5"></rect>
                                <rect id="矩形复制-9" transform="translate(8.000000, 14.000000) rotate(20.000000) translate(-8.000000, -14.000000) " x="5.5" y="1.5" width="5" height="25" rx="2.5"></rect>
                            </g>
                        </g>
                    </g>
                    <rect id="矩形复制-25" fill="#91C25E" opacity="0.9" x="141" y="50" width="14" height="6" rx="1"></rect>
                    <rect id="矩形复制-26" fill="#91C25E" opacity="0.9" x="141" y="44" width="14" height="4" rx="1"></rect>
                    <path d="M155,69 L161.585786,69 C162.138071,69 162.585786,69.4477153 162.585786,70 C162.585786,70.2652165 162.48043,70.5195704 162.292893,70.7071068 L149.414214,83.5857864 C148.633165,84.366835 147.366835,84.366835 146.585786,83.5857864 L133.707107,70.7071068 C133.316582,70.3165825 133.316582,69.6834175 133.707107,69.2928932 C133.894643,69.1053568 134.148997,69 134.414214,69 L141,69 L141,59 C141,58.4477153 141.447715,58 142,58 L154,58 C154.552285,58 155,58.4477153 155,59 L155,69 Z" id="形状结合复制-2" fill="#91C25E" opacity="0.9"></path>
                </g>
            </g>
        </g>
    </g>
</svg>