<?xml version="1.0" encoding="iso-8859-1"?>
<!-- Generator: Adobe Illustrator 17.1.0, SVG Export Plug-In . SVG Version: 6.00 Build 0)  -->
<!DOCTYPE svg PUBLIC "-//W3C//DTD SVG 1.1//EN" "http://www.w3.org/Graphics/SVG/1.1/DTD/svg11.dtd">
<svg version="1.1" id="Capa_1" xmlns="http://www.w3.org/2000/svg" xmlns:xlink="http://www.w3.org/1999/xlink" x="0px" y="0px"
	 viewBox="0 0 511 511" style="enable-background:new 0 0 511 511;" xml:space="preserve">
<g>
	<path d="M259.565,85.377c-93.806,0-170.123,76.317-170.123,170.123s76.317,170.123,170.123,170.123S429.688,349.306,429.688,255.5
		S353.372,85.377,259.565,85.377z M259.565,410.623c-85.535,0-155.123-69.588-155.123-155.123s69.588-155.123,155.123-155.123
		S414.688,169.965,414.688,255.5S345.101,410.623,259.565,410.623z"/>
	<path d="M168.882,293.264c-4.991-11.97-7.521-24.675-7.521-37.764c0-54.15,44.054-98.205,98.205-98.205
		c18.829,0,37.119,5.342,52.895,15.447c3.486,2.232,8.125,1.218,10.361-2.271c2.234-3.487,1.218-8.126-2.27-10.36
		c-18.195-11.656-39.284-17.816-60.986-17.816c-62.421,0-113.205,50.784-113.205,113.205c0,15.081,2.919,29.729,8.677,43.537
		c1.201,2.88,3.988,4.616,6.925,4.616c0.962,0,1.94-0.187,2.883-0.58C168.669,301.479,170.477,297.087,168.882,293.264z"/>
	<path d="M196.835,331.063c-5.405-4.493-10.34-9.577-14.669-15.11c-2.551-3.262-7.266-3.839-10.528-1.287
		c-3.263,2.552-3.839,7.266-1.287,10.528c4.985,6.374,10.67,12.229,16.896,17.403c1.401,1.165,3.1,1.732,4.79,1.732
		c2.152,0,4.289-0.922,5.771-2.706C200.457,338.438,200.021,333.71,196.835,331.063z"/>
	<path d="M338.302,184.575c-3.264,2.55-3.844,7.263-1.294,10.527c13.583,17.39,20.763,38.275,20.763,60.397
		c0,54.15-44.055,98.205-98.205,98.205c-13.076,0-25.771-2.526-37.732-7.509c-3.823-1.593-8.214,0.216-9.807,4.04
		c-1.593,3.823,0.216,8.214,4.04,9.807c13.798,5.748,28.434,8.662,43.5,8.662c62.421,0,113.205-50.784,113.205-113.205
		c0-25.5-8.279-49.578-23.941-69.631C346.279,182.605,341.565,182.025,338.302,184.575z"/>
	<path d="M503.5,101.639c-4.142,0-7.5,3.358-7.5,7.5v65.049c0,6.619-3.836,12.345-9.394,15.115v-80.164c0-4.142-3.358-7.5-7.5-7.5
		s-7.5,3.358-7.5,7.5v80.164c-5.557-2.77-9.394-8.496-9.394-15.115v-65.049c0-4.142-3.358-7.5-7.5-7.5s-7.5,3.358-7.5,7.5v65.049
		c0,15.002,10.416,27.611,24.394,30.994V401.86c0,4.143,3.358,7.5,7.5,7.5s7.5-3.357,7.5-7.5V205.183
		C500.584,201.8,511,189.191,511,174.188v-65.049C511,104.997,507.642,101.639,503.5,101.639z"/>
	<path d="M40.024,101.639C16.083,101.639,0,139.152,0,174.188c0,19.506,14.029,35.788,32.524,39.31V401.86
		c0,4.143,3.358,7.5,7.5,7.5s7.5-3.357,7.5-7.5V213.498c18.496-3.522,32.525-19.804,32.525-39.31
		C80.049,139.152,63.966,101.639,40.024,101.639z M40.024,199.213C26.226,199.213,15,187.987,15,174.188
		c0-30.993,13.76-57.549,25.024-57.549s25.025,26.556,25.025,57.549C65.049,187.987,53.823,199.213,40.024,199.213z"/>
</g>
<g>
</g>
<g>
</g>
<g>
</g>
<g>
</g>
<g>
</g>
<g>
</g>
<g>
</g>
<g>
</g>
<g>
</g>
<g>
</g>
<g>
</g>
<g>
</g>
<g>
</g>
<g>
</g>
<g>
</g>
</svg>
