<?xml version="1.0" encoding="utf-8"?>
<!-- Generator: Adobe Illustrator 23.0.3, SVG Export Plug-In . SVG Version: 6.00 Build 0)  -->
<svg version="1.1" id="Capa_1" xmlns="http://www.w3.org/2000/svg" xmlns:xlink="http://www.w3.org/1999/xlink" x="0px" y="0px"
	 viewBox="0 0 1200 1200" enable-background="new 0 0 1200 1200" xml:space="preserve">
<g>
	<path fill="#E4F170" d="M738.639,515.069c1.663-2.1,3.29-4.24,4.916-6.386c5.255-6.937,10.333-13.626,16.588-18.869
		c1.743-0.501,3.43-1.261,4.986-2.315c5.782-3.916,11.215-6.536,16.607-8.025c2.877-0.662,5.895-1.099,9.002-1.099
		c1.677,0,3.378,0.125,5.093,0.404c2.698,0.44,5.432,1.266,8.158,2.593c1,0.487,1.906,0.979,2.659,1.531
		c0.255,0.973,0.303,2.653-0.596,4.507c-1.621,3.34-3.673,6.29-6.108,8.971c-9.437,7.721-20.833,10.761-31.758,13.145
		c-5.44,1.187-10.9,2.264-16.361,3.34c-4.117,0.812-8.234,1.624-12.344,2.485l-0.589,0.138c-0.227,0.057-0.349,0.079-0.49,0.106
		C738.479,515.419,738.566,515.248,738.639,515.069z M726.515,425.086c-2.39,0-3.619,0.602-3.854,0.808
		c-12.845,12.236-17.764,26.807-15.04,44.548c1.821,11.863,6.872,23.332,15.769,35.687c2.219-5.664,4.622-11.211,6.996-16.584
		c2.666-6.035,5.207-11.845,7.458-17.757c0.061-0.866,0.184-1.736,0.377-2.601c0.091-0.407,0.173-0.809,0.256-1.209l0.033-0.161
		c0.331-1.614,0.743-3.624,1.455-5.791c4.108-12.535,3.351-22.583-2.454-32.581c-0.588-1.012-3.595-3.473-8.73-4.191
		C727.999,425.143,727.238,425.086,726.515,425.086z"/>
	<path fill="#F4414A" d="M447.794,541.408l0.004,0.001c4.234,0.916,8.349,1.375,12.363,1.375c9.349,0,18.153-2.493,26.661-7.523
		c4.04-2.386,8.407-4.713,14.162-7.543l4.764-2.354c12.904-6.392,26.247-13,40.502-16.981c10.813-3.023,20.54-9.354,29.946-15.477
		c2.357-1.533,4.714-3.069,7.09-4.554c9.456-5.919,19.223-12.638,25.613-23.871c3.286-5.777,7.013-12.324,8.532-19.313
		c0.361-1.668,0.738-3.337,1.116-5.006c2.02-8.946,4.11-18.194,3.898-27.622c-0.24-10.689-3.549-20.783-10.727-32.728
		c-1.688-2.807-3.267-5.739-4.795-8.57c-4.312-7.999-8.385-15.553-15.037-21.414c-14.6-12.86-28.826-22.821-43.492-30.447
		c-2.164-1.125-4.293-2.339-6.424-3.556c-5.992-3.42-12.187-6.96-19.029-8.225c-0.482-0.09-0.964-0.175-1.447-0.254
		c-3.647-0.595-7.355-0.895-11.158-0.895c-10.343,0-21.405,2.216-33.955,6.741c-14.393,5.187-25.434,13.812-33.756,26.371
		c-1.194,1.801-2.281,3.691-3.344,5.591c-0.087,0.207-0.184,0.4-0.27,0.609l-0.942,2.312c-1.978,4.88-4.22,10.412-7.722,15.644
		c-7.181,10.731-14.669,21.397-21.924,31.731l-0.1,0.142c-3.084,4.393-6.171,8.789-9.24,13.198
		c-7.434,10.679-13.173,23.576-18.061,40.591c-0.955,3.325-1.636,6.65-2.111,9.971c-0.153,1.828-0.266,3.671-0.284,5.545
		c-0.185,19.33,6.481,36.416,20.38,52.23C411.477,531.321,427.528,537.098,447.794,541.408z M515.522,446.849
		c-0.797,5.756-3.914,9.536-7.172,12.767c-1.361,1.352-2.843,2.034-4.405,2.034c-0.049,0-0.098-0.001-0.147-0.002
		c-0.241-0.007-0.484-0.032-0.727-0.071c-1.847-0.301-3.723-1.554-5.708-3.813c-1.359-1.551-1.907-3.383-2.387-4.999l-0.278-0.912
		c-0.182-0.576-0.402-1.152-0.621-1.731c-1.133-2.993-2.546-6.716,1.121-10.27c1.998-1.936,7.039-3.175,11.168-3.175
		c2.063,0,3.899,0.309,5.014,0.996C516.459,440.766,516.471,444.333,515.522,446.849z M580.021,424.913
		c2.303,1.999,2.47,4.445,2.306,6.793l-0.021,0.302l-0.13,0.269c-0.328,0.676-0.65,1.366-0.974,2.058
		c-1.892,4.057-3.851,8.249-7.571,11.393c-1.15,0.973-2.409,1.471-3.692,1.471c-0.269,0-0.54-0.022-0.811-0.066
		c-0.094-0.015-0.189-0.034-0.284-0.055c-2.241-0.493-4.306-2.528-5.817-5.728c-0.359-0.759-0.575-1.539-0.782-2.291
		c-0.132-0.479-0.262-0.957-0.437-1.416l-0.489-1.234c-1.465-3.643-3.288-8.176,1.346-12.196c1.891-1.638,4.736-2.363,7.662-2.363
		C574.007,421.851,577.816,422.997,580.021,424.913z M448.619,373.419c13.767-11.789,31.262-18.483,53.489-20.465
		c1.322-0.118,2.636-0.173,3.942-0.173c9.548,0,18.671,2.95,27.532,5.808l1.805,0.582c10.2,3.276,20.142,8.662,31.288,16.948
		l2.688,1.997l-3.264,0.696c-13.724,2.919-24.803,10.401-34.865,23.543c-1.474,1.93-2.779,3.086-4.561,3.086
		c-0.991,0-2.129-0.357-3.525-1.138c-6.776-3.765-13.76-5.65-21.037-5.65c-8.026-0.001-16.409,2.291-25.278,6.881
		c-11.095,5.743-18.86,14.253-23.078,25.297c-6.974,18.261-6.892,43.612,16.302,54.954c0.653,0.314,1,0.896,1.28,1.36
		c0.08,0.135,0.162,0.276,0.258,0.407l0.953,1.289l-1.328,0.893c-4.445,2.992-8.76,4.146-12.846,4.146
		c-1.251,0-2.48-0.108-3.685-0.305c-5.224-0.853-9.991-3.37-14.073-5.95c-13.794-8.712-21.262-22.845-22.829-43.206
		C415.645,416.663,426.02,392.775,448.619,373.419z M529.431,799.437c0.319-2.132,2.035-3.666,3.844-5.003
		c1.339-0.992,2.649-2.046,3.958-3.1c2.785-2.241,5.665-4.555,8.842-6.28c5.735-3.118,6.611-8.526,6.701-13.904
		c0.206-12.242-0.666-22.021-2.748-30.782c-1.958-8.25-4.836-14.006-9.057-18.114c-2.224-2.168-3.938-4.748-5.596-7.241
		c-2.16-3.249-4.2-6.316-7.271-8.535c-15.596-11.257-31.624-16.825-48.605-16.826c-5.662,0-11.429,0.619-17.323,1.853
		c-17.608,3.689-35.634,9.945-55.106,19.124c-5.193,2.45-9.605,6.622-13.873,10.659c-1.275,1.205-2.551,2.409-3.845,3.575
		l-1.448,1.307c-1.806,1.635-3.614,3.269-5.489,4.812c-13.333,10.97-18.22,26.47-22.082,41.407
		c-0.458,1.774-0.892,3.564-1.326,5.355c-0.97,3.997-1.973,8.131-3.272,12.16c-1.616,5.02-1.325,10.237-1.017,15.763
		c0.15,2.681,0.304,5.455,0.218,8.192c-0.502,16.207,4.721,30.988,10.439,44.549c2.939,6.971,7.464,13.162,11.842,19.147
		c2.487,3.403,5.06,6.919,7.344,10.577c0.291,0.466,0.463,0.539,0.465,0.539c0.001,0,0.002,0,0.003,0
		c0.156,0,0.657-0.295,0.955-0.473c0.245-0.144,0.491-0.288,0.742-0.416c6.074-3.093,11.941-6.869,17.615-10.52
		c3.213-2.07,6.425-4.137,9.694-6.103c10.113-6.079,19.353-13.789,28.289-21.247c4.196-3.503,8.537-7.125,12.925-10.544
		c10.87-8.469,23.201-15.732,36.654-21.592c0.631-0.276,1.245-0.378,2.023-0.513c0.381-0.062,0.819-0.136,1.337-0.247l2.855-0.606
		l-1.31,2.731c-0.483,1.006-1.019,1.934-1.575,2.829c11.562-6.697,23.125-13.035,34.686-19.7
		C529.455,801.342,529.287,800.393,529.431,799.437z M518.979,740.977c-26.474,3.655-42.184,22.785-54.061,41.018l-1.089,1.671
		l-1.679-2.144c-2.754-3.524-5.133-6.569-8.544-8.419c-3.153-1.715-6.357-2.577-9.761-2.577c-4.348,0-9.026,1.406-14.353,4.237
		c-11.165,5.934-19.167,16.111-25.185,32.026c-4.267,11.285-5.5,22.968-3.663,34.727l0.445,2.851l-2.491-1.235
		c-4.428-2.192-6.433-5.351-9.328-14.694c-6.003-19.382-4.791-39.262,3.604-59.093c10.09-23.834,28.415-39.809,56.024-48.832
		c8.521-2.787,16.729-4.178,24.592-4.178c14.096-0.001,27.089,4.468,38.831,13.382c3.009,2.284,5.868,4.7,7.799,9.141l0.807,1.853
		L518.979,740.977z"/>
	<path fill="#D2451E" d="M1130.445,388.273c-0.194-0.83-0.374-1.679-0.556-2.539c-1.088-5.128-2.214-10.432-6.598-13.085
		c-10.107-6.128-22.246-9.447-36.071-9.836c-1.146-0.033-2.303-0.05-3.471-0.05c-12.102,0-25.392,1.8-41.465,5.599
		c-23.787,5.616-48.491,13.623-68.017,34c-0.863,0.902-2.276,2.277-4.278,2.277c-0.209,0-0.424-0.015-0.645-0.047l-1.606-0.292
		c-7.712,8.913-13.336,19.552-15.802,30.845l0.598-0.419l0.217,2.487c0.679,7.828,1.746,17.036,4.507,25.99l0.403,1.313
		c3.252,10.577,6.322,20.57,14.382,27.688c3.908,3.451,8.029,6.804,12.014,10.042c4.249,3.454,8.641,7.026,12.813,10.749
		c3.114,2.778,5.828,4.115,8.861,4.115c2.03,0,4.204-0.599,6.737-1.765c32.561-14.967,63.992-30.323,90.603-53.548
		C1127.963,440.069,1136.916,416.02,1130.445,388.273z M1087.706,448.388c-17.399,19.074-37.203,31.887-58.867,38.084
		c-4.28,1.224-8.846,1.887-13.464,1.887c-2.513,0-5.04-0.196-7.546-0.605c-12.228-1.992-23.931-9.052-30.785-23.084
		c-3.083-6.321-2.822-12.659-2.115-20.923l0.385-4.505l2.267,3.813c5.872,9.889,12.249,15.853,20.675,19.342
		c1.862,0.77,3.502,1.207,5.175,1.405c0.868,0.085,1.764,0.291,2.67,0.492c1.325,0.286,2.423,0.501,3.361,0.501
		c1.01,0,1.833-0.25,2.551-0.928c0.471-0.445,0.739-0.847,0.754-1.129c0.027-0.494-0.669-1.293-1.283-1.996
		c-0.891-1.024-1.899-2.183-2.117-3.723c-0.302-2.13-0.772-4.299-1.225-6.394c-1.191-5.504-2.422-11.196-0.986-17.328l0.195-0.891
		c0.467-2.197,1.17-5.517,4.499-5.888c0.195-0.022,0.383-0.033,0.565-0.033c0.861,0,1.58,0.247,2.144,0.73
		c1.11,0.953,1.24,2.488,1.344,3.718c0.043,0.53,0.089,1.077,0.202,1.428c2.913,9.014,8.999,16.139,16.704,19.543
		c3.247,1.433,6.667,2.148,10.183,2.148c4.332,0,8.811-1.086,13.287-3.254c15.96-7.727,25.616-22.209,33.675-36.704
		c3.772-6.784,6.343-13.265,7.86-19.808c0.286-1.23,0.878-3.789,3.227-4.124c0.166-0.023,0.329-0.035,0.488-0.035
		c2.087,0,3.602,1.922,4.007,3.89c0.19,0.915,0.427,1.821,0.663,2.729c0.639,2.437,1.297,4.96,1.13,7.792
		C1106.385,420.598,1099.966,434.943,1087.706,448.388z"/>
	<path fill="#FCCC5A" d="M739.936,293.991c-0.571,0.636-1.318,0.8-1.966,0.8c-0.343,0-0.656-0.041-0.898-0.072
		c-0.264-0.036-0.518-0.07-0.74-0.07c-0.137,0-0.261,0.013-0.368,0.046l-0.505,0.158l-5.379-2.451
		c-4.127-1.878-8.326-3.786-12.506-5.742c-2.102-0.984-3.562-2.576-4.004-4.366c-0.256-1.045-0.299-2.664,0.951-4.454l0.199-0.285
		c0.258-0.371,0.541-0.77,0.836-1.173c-6.265-3.056-13.091-5.179-20.11-7.311c-0.909,0.14-1.812,0.187-2.694,0.187
		c-0.616,0-1.22-0.02-1.81-0.039c-0.539-0.016-1.076-0.034-1.605-0.034c-0.061,0-0.121,0-0.181,0.001
		c-0.296,0.001-0.597,0.002-0.894,0.002c-20.753,0-41.612-3.331-60.05-6.278c-14.005-2.372-26.168-5.113-37.074-8.763
		c-18.311-6.131-36.147-15.83-53.011-28.824c-8.515-6.557-18.362-10.764-29.371-12.56c-3.288-0.537-6.68-0.858-10.171-0.962
		c-3.178-0.096-6.408-0.144-9.702-0.144c-15.429,0-32.305,1.057-52.25,3.251c-5.136,0.566-8.019,3.001-10.771,6.485
		c-8.37,10.598-15.609,22.334-22.612,33.687c-1.47,2.384-2.941,4.768-4.421,7.141c-9.726,15.598-17.875,32.521-25.756,48.889
		c-1.817,3.773-3.633,7.545-5.469,11.306c-12.221,25.027-22.382,51.675-30.204,79.206c-1.104,3.886-2.169,7.787-3.235,11.688
		c-2.74,10.033-5.572,20.404-9.053,30.382c-3.951,11.325-7.348,23.044-10.633,34.38c-2.506,8.646-5.098,17.585-7.922,26.307
		c-3.17,9.793-6.265,19.801-9.255,29.479l-4.051,13.069c-4.505,14.491-9.01,28.982-13.458,43.488
		c-1.149,3.751-2.221,7.526-3.294,11.305c-2.04,7.188-4.15,14.62-6.784,21.744c-12.449,33.68-30.194,63.869-47.517,91.476
		c-3.774,6.015-7.857,11.934-11.806,17.656c-5.974,8.662-12.153,17.62-17.334,27.027c-4.117,7.472-8.193,14.972-12.268,22.472
		c-11.309,20.816-23.005,42.34-35.464,62.952c-8.923,14.764-15.801,30.56-20.446,46.948c-3.993,14.087-10.867,27.129-20.43,38.755
		c-8.964,10.899-15.219,20.306-19.686,29.602c-9.082,18.891-14.567,36.62-16.771,54.196c-1.705,13.603,1.171,26.606,8.551,38.647
		c3.03,4.944,5.494,6.886,9.203,6.886c2.155,0,4.731-0.655,8.082-1.759c7.269-2.387,12.32-7.532,17.667-12.978
		c0.923-0.939,1.847-1.88,2.784-2.808c12.9-12.768,24.077-22.801,40.541-26.169c9.503-1.943,18.19-7.082,26.591-12.05
		c4.637-2.743,9.43-5.578,14.36-7.89l0.898-0.43c1.878-0.907,4.198-2.026,6.158-2.026c1.133,0,2.144,0.373,2.882,1.376
		c0.092,0.126,0.125,0.253,0.199,0.379c29.759-17.918,61.677-31.651,93.232-47.089c-0.596-2.785,1.807-4.479,2.792-5.17
		c6.172-4.345,12.299-9.013,18.224-13.532c9.317-7.102,18.95-14.446,29.063-20.752c4.706-2.933,10.564-6.587,16.574-9.168
		c2.179-0.938,2.66-1.578,2.754-1.877c0.227-0.72-0.874-2.55-1.602-3.758c-13.243-22.014-24.438-42.248-27.3-66.979
		c-1.247-10.755-2.466-23.502-2.054-36.504c0.093-2.903,0.987-5.582,1.854-8.171c0.5-1.492,0.971-2.901,1.299-4.35
		c4.163-18.31,8.828-36.022,20.028-51.423c4.102-5.641,9.186-10.168,14.103-14.548c1.608-1.429,3.216-2.862,4.791-4.332
		c29.151-27.212,66.17-33.836,98.58-37.908c2.103-0.265,4.207-0.386,6.299-0.386c11.413,0,22.562,3.607,32.223,7.313
		c13.56,5.196,24.847,13.555,35.514,26.31c12.24,14.635,19.098,32.173,21.584,55.189c0.04,0.366,0.125,0.733,0.207,1.099
		c0.153,0.684,0.328,1.461,0.296,2.292c-0.034,0.885,0.015,1.377,0.066,1.64c0.264-0.099,0.752-0.334,1.594-0.906
		c7.732-5.253,17.945-12.129,28.362-18.692c5.767-3.636,11.594-7.169,17.421-10.7c9.902-6.003,20.14-12.212,29.876-18.828
		c6.612-4.492,13.575-8.535,20.308-12.446c6.77-3.932,13.77-7.996,20.356-12.492c3.902-2.664,7.858-5.238,11.812-7.816
		c10.256-6.684,20.863-13.596,30.264-21.961c3.502-3.118,7.33-5.891,11.034-8.579c2.778-2.013,5.65-4.097,8.336-6.291
		c15.568-12.715,33.82-28.088,51.16-45.673c11.956-12.129,26.789-19.557,41.037-25.78l2.874-1.255l-0.975,3.088
		c-0.289,0.912-0.653,1.749-0.995,2.609c16.258-10.865,31.025-24.714,46.128-37.891c-0.235-2.259,1.16-3.473,1.793-4.012
		c2.942-2.491,5.89-4.972,8.84-7.456c6.277-5.283,12.556-10.568,18.77-15.935c5.889-5.088,12.729-11.228,18.804-18.203
		c0.814-0.933,1.561-1.876,1.51-2.452c-0.024-0.277-0.276-0.909-1.697-2.001c-10.527-8.087-19.881-16.864-27.799-26.09
		c-12.707-14.8-23.412-31.565-31.817-49.828c-9.337-20.281-22.587-34.42-40.51-43.221c-8.729-4.285-17.962-7.763-26.892-11.123
		c-4.139-1.56-8.28-3.117-12.391-4.758c-1.311-0.524-2.397-0.801-3.391-0.801c-1.759,0-3.225,0.869-5.128,2.771
		c-4.668,4.664-9.295,7.868-14.144,9.796c-0.181,0.074-0.361,0.199-0.547,0.32c-0.431,0.277-1.216,0.778-2.089,0.778
		c-0.567,0-1.172-0.212-1.74-0.836c-1.767-1.942-0.331-4.07,0.36-5.091c1.012-1.518,1.857-2.834,2.702-4.154
		c1.669-2.604,3.394-5.296,5.282-7.822c0.588-0.788,1.686-2.26,1.584-2.644c-0.002-0.006-0.154-0.503-1.999-1.208
		c-2.511-0.956-4.668-2.694-6.753-4.379c-0.482-0.388-0.962-0.774-1.442-1.15c-11.53-8.975-18.703-18.032-22.572-28.502
		l-0.212-0.548c-0.307-0.78-0.648-1.727-0.779-2.714C747.733,303.256,744.626,297.998,739.936,293.991z M131.413,996.131
		c-3.918,3.679-7.547,6.595-11.096,8.91c-9.711,6.331-16.592,15.427-22.042,23.486c-0.259,0.383-0.497,0.809-0.739,1.242
		c-0.908,1.615-2.219,3.948-4.78,3.948c-0.237,0-0.483-0.02-0.742-0.062c-0.169-0.027-0.341-0.064-0.519-0.111
		c-3.381-0.89-3.834-4.443-4.134-6.795l-0.108-0.819c-0.836-5.743-0.636-11.917,0.633-19.429
		c3.845-22.769,9.854-40.44,18.912-55.606c0.232-0.39,0.457-0.819,0.689-1.259c1.044-1.986,2.546-4.867,5.454-4.867
		c0.437,0,0.907,0.065,1.411,0.208c3.898,1.09,5.673,4.665,4.748,9.563c-0.222,1.168-0.237,2.454-0.253,3.695
		c-0.021,1.697-0.042,3.448-0.584,5.004c-1.246,6.389-1.656,12.818-1.288,20.221c0.073,1.448,0.225,4.468,0.764,4.871
		c0.095,0.07,0.264,0.1,0.487,0.1c0.947,0,2.86-0.548,4.094-0.908l0.73-0.219c1.191-0.364,2.485-0.758,3.889-0.758
		c0.759,0,1.55,0.115,2.373,0.412c2.682,0.975,4.142,2.303,4.462,4.058C134.076,992.657,133.28,994.379,131.413,996.131z
		 M189.658,940.497c-0.638,2.733-3.252,5.803-6.996,8.207c-3.033,1.947-6.098,3.008-8.551,3.008c-0.412,0-0.806-0.03-1.181-0.09
		c-0.17-0.028-0.336-0.063-0.497-0.105c-5.533-1.39-10.004-9.869-8.542-16.201c0.782-3.39,2.946-6.515,5.789-8.363
		c1.605-1.041,3.305-1.58,4.912-1.58c0.545,0,1.079,0.062,1.596,0.187C184.131,927.491,190.929,935.026,189.658,940.497z
		 M233.626,773.573c12.102-26.584,26.911-50.781,44.019-71.921c3.299-4.074,6.551-8.316,9.573-12.293
		c1.938-2.549,3.956-3.817,6.097-3.817c1.408,0,2.868,0.548,4.395,1.641c4.721,3.385,2.613,7.366,1.074,10.272
		c-14.162,26.749-33.127,52.67-59.764,81.719c-1.009,1.109-2.1,2.308-3.894,2.582l-0.797,0.122l-0.507-0.647
		C231.496,778.262,232.882,775.212,233.626,773.573z M261.094,884.662c-8.569,16.587-20.825,20.07-29.597,20.07
		c-1.634,0-3.318-0.124-5.014-0.368c-10.905-1.077-20.59-7.196-26.648-16.867c-6.344-10.135-7.779-22.652-3.936-34.345
		c1.354-4.118,3.763-7.565,6.769-10.353c1.394-1.561,2.956-2.945,4.71-4.107c5.126-3.392,11.141-4.675,16.906-4.675
		c4.703,0,9.239,0.854,12.991,2.113c2.937,0.986,5.641,2.484,8.197,4.16c2.226,1.15,4.369,2.389,6.371,3.836
		C266.431,854.668,269.543,868.306,261.094,884.662z M305.304,786.673c-5.74,9.107-13.684,15.988-20.698,21.512
		c-0.911,0.718-1.764,1.594-2.667,2.518c-2.415,2.476-5.151,5.282-9.751,5.615l-1.49,0.11l-0.024-1.56
		c-0.087-5.559,2.239-9.761,4.489-13.828c0.34-0.612,0.678-1.225,1.008-1.842c4.154-7.766,9.224-16.621,16.874-23.41
		c1.944-1.727,3.848-2.591,5.782-2.591c1.879,0,3.787,0.815,5.787,2.446C309.663,779.757,306.383,784.962,305.304,786.673z
		 M862.349,483.835c1.149-6.413,4.66-8.092,7.975-8.092c0.673,0,1.337,0.069,1.973,0.182c3.651,0.626,7.96,3.798,10.481,7.717
		c1.086,1.688,2.272,4.211,1.757,6.623c-0.922,4.297-7.906,11.086-12.187,11.086c-0.155,0-0.307-0.009-0.455-0.027
		c-0.101-0.014-0.203-0.027-0.303-0.044c-2.505-0.409-4.829-1.993-6.575-4.486C862.528,493.246,861.533,488.4,862.349,483.835z
		 M443.655,251.935c0.43-2.678,1.884-5.076,4.097-6.754c1.941-1.471,4.328-2.259,6.743-2.259c0.588,0,1.177,0.047,1.763,0.142
		c0.001,0,0.004,0.001,0.006,0.001c2.632,0.43,5.362,2.315,7.128,4.921c1.309,1.932,1.862,3.964,1.557,5.724
		c-0.576,3.319-3.729,6.633-6.255,8.459c-1.314,0.949-3.703,2.409-5.969,2.409c-0.259,0-0.517-0.019-0.771-0.06
		c-0.046-0.007-0.09-0.018-0.136-0.025C446.47,263.447,442.733,257.697,443.655,251.935z M330.91,589.341
		c-0.655,1.241-1.902,3.603-4.048,3.603c-0.161,0-0.326-0.013-0.497-0.041c-0.281-0.046-0.578-0.133-0.889-0.267
		c-2.796-1.195-2.174-4.338-1.802-6.215l0.162-0.858l1.452-8.872l0.763-4.687c0.933-8.131,3.403-20.485,9.872-33.254
		c1.623-3.205,4.691-5.286,8.008-5.431c0.135-0.007,0.269-0.01,0.402-0.01c2.586,0,4.779,1.263,6.069,3.467
		c1.984,3.384,0.795,7.039-0.16,9.976c-0.147,0.451-0.292,0.893-0.421,1.326c-3.894,12.985-9.937,26.224-18.48,40.478
		C331.2,588.789,331.06,589.06,330.91,589.341z M366.067,639.557c-3.052,14.159-9.84,17.651-15.788,17.651
		c-0.862,0-1.706-0.073-2.519-0.198c-0.058-0.009-0.118-0.019-0.175-0.029c-5.19-0.847-9.665-3.726-12.613-8.122
		c-2.888-4.303-3.931-9.537-2.937-14.741c1.7-8.893,7.041-13.378,15.9-13.378c1.341,0,2.76,0.103,4.261,0.308l0.038,0.006
		c5.366,0.893,9.645,3.441,12.051,7.175C366.356,631.439,366.972,635.356,366.067,639.557z M448.96,614.38
		c-6.039,12.92-15.42,22.765-28.675,30.094l-0.395,0.235c-0.611,0.37-1.727,1.046-2.915,1.046c-0.157,0-0.315-0.012-0.473-0.038
		c-0.589-0.096-1.181-0.385-1.724-0.988c-0.917-1.013-1.837-2.903-1.018-6.135l0.023-0.082c3.811-12.206,8.976-21.066,16.255-27.879
		c0.564-0.528,1.121-1.064,1.677-1.599c1.136-1.094,2.273-2.188,3.462-3.213c2.016-1.738,4.171-2.64,6.286-2.64
		c0.328,0,0.653,0.022,0.978,0.065c2.303,0.34,4.443,1.746,6.057,4.146C450.02,609.653,450.161,611.81,448.96,614.38z
		 M524.364,609.161c-0.714,4.532-2.966,8.577-6.023,10.824c-1.684,1.236-3.495,1.87-5.311,1.87c-0.421,0-0.842-0.034-1.262-0.103
		c-0.086-0.014-0.173-0.028-0.258-0.045c-3.879-0.769-10.322-10.879-9.711-15.237c0.207-1.477,1.132-2.893,2.675-4.093
		c2.414-1.877,6.049-3.002,9.399-3.002c0.714,0,1.414,0.051,2.087,0.157c2.967,0.374,5.256,1.514,6.701,3.1
		C524.185,604.306,524.774,606.563,524.364,609.161z M535.214,540.525c-10.857,4.04-21.232,9.971-31.265,15.707
		c-2.546,1.457-5.089,2.909-7.641,4.336c-10.371,5.792-21.417,8.64-33.903,8.64c-4.952,0-10.131-0.448-15.585-1.338
		c-1.106-0.18-2.224-0.378-3.353-0.595c-24.887-4.776-44.151-15.604-58.89-33.096c-9.035-10.717-14.26-23.165-18.559-35.021
		c-4.994-13.765-6.469-27.823-4.493-41.939c2.073-23.029,12.242-42.134,21.216-56.538c5.532-8.878,11.553-17.341,17.452-25.632
		c4.469-6.283,9.091-12.78,13.294-19.211c2.182-3.339,4.151-7.168,6.247-11.242c1.24-2.412,2.577-4.996,4.037-7.624
		c12.625-28.796,34.815-45.674,66.048-50.115c6.598-0.937,12.875-1.407,18.883-1.407c8.618,0,16.682,0.966,24.358,2.904
		c8.596,2.169,16.426,6.601,23.997,10.888c1.483,0.842,2.966,1.68,4.454,2.502c18.648,10.321,33.759,21.204,46.197,33.274
		c6.266,6.08,10.531,13.665,14.657,20.998c1.143,2.036,2.288,4.071,3.475,6.076c7.564,12.78,14.797,26.978,16.493,44.172
		c0.913,9.246,0.39,18.267-1.596,27.574c-2.256,22.429-11.953,43.81-28.826,63.549c-3.522,4.121-8,7.127-12.332,10.035
		c-2.07,1.39-4.209,2.824-6.185,4.348C575.608,525.485,555.073,533.131,535.214,540.525z M635.446,675.664
		c-10.238,8.522-20.182,14.108-30.404,17.079l-0.431,0.131c-0.789,0.24-1.798,0.548-2.786,0.548c-0.222,0-0.442-0.016-0.66-0.051
		c-0.576-0.094-1.125-0.326-1.594-0.779c-1.404-1.357-1.121-3.718-0.785-5.376l0.118-0.358c1.79-3.792,4.667-7.837,8.549-12.02
		c5.797-6.251,11.906-10.282,18.673-12.33c1.074-0.326,2.343-0.634,3.677-0.634c0.956,0,1.946,0.158,2.922,0.58l0.597,0.258
		c2.321,0.984,5.21,2.209,5.821,5.871C639.728,672.097,637.048,674.331,635.446,675.664z M673.648,610.303
		c-2.621,16.934-21.753,29.588-37.109,29.588c-1.438,0-2.868-0.103-4.365-0.324c-7.722-1.187-14.677-5.728-19.582-12.783
		c-5.841-8.397-8.201-19.214-6.474-29.686c0.241-1.456,0.581-2.872,0.966-4.267c0.15-0.573,0.327-1.133,0.5-1.698
		c0.098-0.302,0.192-0.605,0.296-0.903c2.687-8.084,7.76-15.209,14.295-19.705c4.667-3.211,9.781-4.867,14.815-4.867
		c1.808,0,3.605,0.214,5.368,0.646c4.19,0.693,8.374,2.533,12.258,5.126C667.695,578.82,676.072,594.655,673.648,610.303z
		 M678.591,333.172c-1.074,3.876-3.812,13.743-10.401,13.743c-0.366,0-0.745-0.03-1.135-0.094c-0.109-0.018-0.219-0.039-0.332-0.06
		c-6.242-1.298-13.641-12.35-12.566-18.772c0.732-4.371,7.54-7.542,13.281-7.542c0.74,0,1.461,0.053,2.15,0.162
		c0.013,0.002,0.023,0.004,0.036,0.006c2.964,0.484,5.914,2.612,7.707,5.561C678.75,328.508,679.196,330.994,678.591,333.172z
		 M780.713,575.077l-0.019,0.098c-0.507,2.211-2.11,3.873-3.661,5.481c-0.395,0.407-0.788,0.815-1.154,1.227
		c-10.653,11.95-24.217,21.321-41.467,28.648c-0.21,0.09-0.43,0.215-0.66,0.341c-0.615,0.338-1.608,0.887-2.698,0.887
		c-0.163,0-0.328-0.012-0.495-0.04c-0.677-0.111-1.375-0.468-2.028-1.242c-2.24-2.648-0.226-4.842,0.634-5.779
		c0.217-0.238,0.432-0.461,0.585-0.691c9.957-14.961,23.1-27.178,39.064-36.312c1.525-0.873,2.952-1.31,4.298-1.31
		c1.634,0,3.148,0.644,4.565,1.934l0.369,0.33C779.492,569.933,781.29,571.535,780.713,575.077z M758.391,428.404
		c6.581,16.625,1.655,32.193-0.992,40.56c-0.188,0.594-0.403,1.153-0.597,1.74c2.953-1.801,6.136-3.41,9.618-4.745
		c2.911-1.116,6.617-2.415,10.856-3.423c0.02-0.005,0.04-0.014,0.06-0.019c4.525-1.225,9.021-1.837,13.472-1.837
		c8.18,0,16.207,2.066,23.985,6.189c2.405,1.273,4.379,3.108,5.906,5.3c2.172,2.428,4.078,5.588,4.911,9.742
		c0.735,3.66,0.279,7.46-1.299,10.843c-3.026,6.489-6.682,11.492-11.508,15.747c-0.188,0.166-0.381,0.315-0.571,0.478
		c-7.763,8.222-18.341,14.285-32.349,18.618c-13.368,4.14-27.927,6.549-44.51,7.366c-0.372,0.018-0.739,0.027-1.1,0.027
		c-1.158,0-2.263-0.092-3.318-0.265c-6.748-1.101-11.498-5.489-15.42-10.139c-2.063-0.884-3.97-2.162-5.591-3.811
		c-16.499-16.785-24.871-34.8-25.594-55.074c-0.735-20.57,6.276-38.398,20.265-51.55c5.529-5.203,12.922-8.069,20.815-8.069
		c1.798,0,3.626,0.15,5.438,0.445c0.72,0.118,1.444,0.257,2.112,0.411C744.441,409.539,754.177,417.763,758.391,428.404z"/>
	<path fill="#E28D22" d="M967.73,404.297l0.519-1.637c2.578-8.13,11.942-19.412,22.77-27.434
		c16.564-12.274,35.916-21.009,60.9-27.486c9.627-2.496,19.701-4.6,29.995-4.6c6.443,0,12.97,0.824,19.532,2.891
		c0.278,0.087,0.537,0.168,0.788,0.229c-14.549-12.219-31.725-22.48-52.462-31.343c-1.281-0.544-2.541-1.222-3.805-1.903
		c-2.746-1.479-5.353-2.881-8.126-2.881c-0.311,0-0.623,0.017-0.938,0.055c-32.598,3.831-66.719,10.48-95.416,32.975
		c-0.976,0.771-2.495,1.968-4,1.968c-0.746,0-1.488-0.294-2.159-1.079c-2.084-2.439,0.057-4.467,0.863-5.228
		c0.31-0.294,0.66-0.625,0.782-0.849c0.296-0.542,0.685-0.942,1.031-1.295l0.247-0.257c20.003-21.617,44.703-35.872,73.411-42.374
		c0.975-0.221,2.489-0.562,3.217-0.855c-0.452-0.724-1.598-2.012-2.202-2.689c-4.74-5.324-10.411-10.357-18.393-16.313
		c-17.332-12.937-36.599-20.996-58.169-29.458c-3.654-1.429-7.105-2.148-10.507-2.148c-4.273,0-8.467,1.134-12.887,3.421
		c-13.01,6.731-26.71,14.346-38.75,24.402c-1.628,1.358-3.218,2.867-4.756,4.329c-0.735,0.696-1.469,1.393-2.211,2.079l-1.153,1.064
		l-2.571-3.462l0.177-0.713c0.947-3.805,3.445-6.318,5.861-8.746c0.564-0.567,1.124-1.129,1.658-1.706
		c10.676-11.531,23.011-21.292,36.659-29.008c1.167-0.661,1.305-0.989,1.309-1.003c-0.003-0.104-0.122-0.486-0.945-1.641
		c-6.619-9.284-15.572-16.218-24.23-22.923c-1.594-1.237-3.19-2.471-4.774-3.723c-0.616-0.484-1.304-0.619-2.065-0.619
		c-0.452,0-0.93,0.048-1.434,0.098l-0.563,0.054c-1.208,0.106-2.421,0.196-3.635,0.286c-5.38,0.398-10.944,0.811-16.138,2.768
		l-0.598,0.244c-0.746,0.313-1.755,0.738-2.86,0.738c-1.006,0-2.092-0.351-3.132-1.457l-0.727-0.774l0.494-0.97
		c2.786-5.473,7.283-8.562,12.543-11.36c-12.193-7.169-25.697-12.593-43.349-17.441l-1.523-0.433
		c-2.133-0.625-4.317-1.258-6.423-1.258c-1.057,0-2.095,0.159-3.097,0.559c-15.801,6.299-31.177,13.914-45.702,22.629
		c-12.679,7.61-23.217,15.418-32.219,23.87c-0.894,0.842-1.736,1.262-2.518,1.262c-0.596,0-1.156-0.243-1.679-0.73
		c-0.455-0.427-1.797-2.003-0.078-4.47l0.393-0.565c0.609-0.874,1.218-1.748,1.854-2.603c13.524-18.118,31.505-30.725,50.288-43.096
		c1.561-1.03,2.395-1.71,2.482-2.026c-0.008-0.064-0.113-0.55-1.676-2.013c-20.585-19.271-45.174-30.748-73.118-33.969
		c-0.353-0.042-0.702-0.063-1.046-0.063c-1.458,0-2.842,0.376-4.205,1.141c-14.211,7.959-30.563,17.964-44.094,31.795l-0.349,0.367
		c-0.947,1.004-2.194,2.3-4.359,2.3c-0.452,0-0.945-0.057-1.484-0.185l-1.895-0.461l1.015-1.758
		c0.484-0.844,0.935-1.649,1.369-2.424c0.906-1.618,1.74-3.108,2.664-4.537c6.561-10.151,15.168-19.271,26.312-27.883
		c0.217-0.169,0.448-0.333,0.679-0.498c0.419-0.3,1.119-0.797,1.215-1.045c-0.014-0.002-0.105-0.353-0.876-1.06
		c-7.489-6.858-15.063-12.083-23.16-15.972c-0.592-0.285-1.195-0.427-1.825-0.427c-0.802,0-1.65,0.232-2.58,0.697l-2.152,1.076
		c-7.86,3.929-15.99,7.993-23.428,13.009c-0.209,0.141-0.417,0.294-0.625,0.45c-0.846,0.627-2.047,1.52-3.509,1.52
		c-0.892,0-1.882-0.333-2.947-1.261l-0.998-0.869l0.75-1.13c4.449-6.7,10.217-11.84,16.322-17.282
		c0.843-0.753,1.692-1.508,2.543-2.274c-0.74-0.204-1.386-0.377-2.034-0.531c-5.96-1.425-12.244-2.126-19.438-2.126
		c-4.613,0-9.6,0.288-15.116,0.86c-3.045,0.313-6.102,0.527-9.159,0.74c-11.921,0.83-23.182,1.616-33.924,8.135
		c-13.47,8.172-28.727,18.208-39.313,33.896l-7.995,11.814l-3.265-2.126l0.167-0.988c3.13-18.485,13.388-32.443,27.919-47.358
		c-5.044-1.441-10.143-2.15-15.522-2.151c-3.507,0-7.133,0.301-10.943,0.898c-22.989,3.598-41.036,12.427-55.173,26.99
		c-14.934,15.389-21.493,34.463-20.635,60.024c0.15,4.487,1.378,5.294,4.755,5.294c0.026,0,0.051,0,0.077,0l0.485-0.004
		c6.188-0.041,12.585-0.083,18.859-0.365c0.064-0.003,0.132-0.004,0.203-0.004c0.155,0,0.326,0.006,0.506,0.012
		c0.128,0.006,0.314,0.015,0.499,0.015c0.226,0,0.451-0.013,0.566-0.057c-0.007-0.025,0.013-0.129,0.01-0.31
		c-0.095-7.522,3.164-13.709,6.316-19.689c0.925-1.757,1.85-3.509,2.685-5.293c1.153-2.46,3.299-7.039,8.379-8.932l2.099-0.779
		l-0.207,2.308c-0.936,10.49-2.576,20.605-4.057,29.116c-0.321,1.85-0.058,2.309,0.031,2.406c0.046,0.051,0.273,0.243,1.068,0.243
		c0.277,0,0.623-0.023,1.055-0.084c2.335-0.325,4.701-0.423,6.99-0.521c1.182-0.048,2.364-0.098,3.542-0.179
		c3.895-0.263,7.858-0.452,11.855-0.452c10.817,0,21.88,1.382,32.518,6.416c5.029,2.379,9.942,5.214,14.692,7.956
		c1.754,1.013,3.512,2.027,5.284,3.026c0.228-0.687,0.373-1.423,0.524-2.182c0.203-1.026,0.413-2.087,0.839-3.149
		c6.111-15.217,15.902-27.527,24.674-37.562c1.806-2.068,3.968-3.76,6.059-5.398c0.767-0.599,1.535-1.201,2.283-1.818
		c0.79-0.65,1.666-0.976,2.505-0.976c0.841,0,1.644,0.327,2.286,0.98c1.825,1.856,0.324,3.721-0.17,4.332
		c-0.105,0.131-0.21,0.254-0.289,0.38c-9.226,14.644-16.448,30.792-22.079,49.373c-1.429,4.717-1.396,5.791,2.197,7.514
		c21.658,10.376,44.617,16.933,64.219,21.981c0.764,0.197,1.342,0.311,1.805,0.311c1.026,0,1.49-0.559,2.179-2.017
		c4.681-9.894,11.844-17.852,18.232-24.328c0.163-0.166,0.331-0.355,0.506-0.553c0.726-0.816,2.016-2.262,3.641-2.262
		c0.645,0,1.344,0.228,2.081,0.813c0.75,0.595,1.178,1.311,1.27,2.134c0.154,1.379-0.702,2.494-1.324,3.307
		c-0.197,0.256-0.418,0.543-0.497,0.706c-3.485,7.107-7.488,15.542-10.746,24.196c-0.647,1.723-0.468,2.182-0.425,2.258
		c0.021,0.039,0.239,0.419,1.717,0.562c5.221,0.612,10.354,1.882,15.32,3.109c3.928,0.97,7.987,1.971,12.03,2.631
		c0.043,0.007,0.084,0.014,0.125,0.02c4.169,0.68,8.346,1.795,12.386,2.876c2.348,0.626,4.706,1.255,7.087,1.809l2.895,0.674
		l-2.342,1.954c-1.681,1.402-3.44,2.024-5.176,2.291c7.018,2.132,13.845,4.255,20.11,7.311c1.309-1.786,2.992-3.692,5.217-4.07
		c0.266-0.046,0.531-0.069,0.797-0.069c1.158,0,2.311,0.439,3.44,1.304c6.146,4.71,10.893,9.459,14.512,14.522
		c0.893,1.25,1.542,3.413,0.985,4.954c-0.15,0.416-0.35,0.72-0.572,0.967c4.691,4.006,7.797,9.264,10.841,14.758
		c-0.099-0.752-0.089-1.524,0.227-2.274c0.412-0.98,1.208-1.711,2.365-2.169c0.508-0.198,0.983-0.286,1.427-0.286
		c2.481,0,3.985,2.722,4.691,4.003c6.835,12.367,16.641,21.518,29.979,27.977c8.433,4.083,17.49,6.976,26.248,9.777
		c7.581,2.421,15.419,4.926,22.883,8.204c0.167,0.072,0.343,0.149,0.538,0.149c0.382,0,0.842-0.292,1.479-1.479
		c2.808-5.229,6.858-9.483,10.432-13.06c8.168-8.174,15.729-15.283,25.563-19.543c0.151-0.067,0.316-0.156,0.491-0.246
		c0.54-0.285,1.496-0.787,2.487-0.787c0.73,0,1.478,0.272,2.094,1.102c1.737,2.328-0.203,4.398-1.031,5.284l-0.333,0.361
		c-7.934,8.948-14.539,19.232-20.926,29.174l-2.162,3.363c-1.073,1.662-1.51,2.739-1.374,3.388c0.13,0.627,0.902,1.358,2.431,2.308
		c14.085,8.763,23.277,17.606,29.807,28.673c4.325,7.333,8.585,14.757,12.661,22.068c0.555,0.996,0.877,1.455,1.064,1.655
		c0.182-0.145,0.533-0.486,1.134-1.29c5.624-7.517,11.95-14.261,16.832-19.297l0.469-0.49c1.523-1.598,3.247-3.412,6.154-3.531
		l1.212-0.052l0.232,1.237c0.294,1.565,0.101,2.809-0.671,4.295l-0.841,1.62c-4.466,8.588-9.085,17.468-13.299,26.355
		c-0.259,0.548-0.586,1.109-0.923,1.678c-1.287,2.188-1.954,3.507-0.71,5.2c8.308,11.304,17.523,21.522,27.39,30.369
		c0.36,0.323,0.617,0.528,0.797,0.661c0.068-0.197,0.148-0.474,0.237-0.872c0.412-1.832,0.898-3.644,1.385-5.455
		c0.635-2.366,1.292-4.811,1.755-7.252c0.863-4.54,2.231-9.698,7.565-13.439l1.401-0.982c2.466-11.293,8.091-21.932,15.802-30.845
		L967.73,404.297z M825.243,223.557c-0.295,2.119-1.815,3.046-2.821,3.659l-0.334,0.207c-15.05,9.562-26.149,24.188-35.943,37.088
		c-3.527,4.654-7.831,8.422-11.626,11.747c-1.545,1.354-3.205,2.06-4.748,2.06c-0.265,0-0.527-0.021-0.784-0.063
		c-0.324-0.053-0.641-0.137-0.947-0.258c-1.954-0.767-3.233-2.73-3.606-5.527c-0.544-4.072-0.836-8.4,2.018-12.576
		c4.815-7.047,10.977-13.568,18.835-19.938c10.536-8.538,21.374-17.324,35.513-19.234c0.204-0.026,0.424-0.115,0.642-0.192
		c0.419-0.148,0.963-0.341,1.53-0.341c0.42,0,0.854,0.106,1.26,0.413c1.029,0.764,1.028,2.251,1.027,2.741L825.243,223.557z
		 M828.763,599.378c-6.524,4.729-12.449,10.414-18.177,15.908c-3.329,3.193-6.772,6.496-10.309,9.593
		c-3.276,2.867-6.508,5.794-9.738,8.722c-5.772,5.232-11.743,10.642-17.895,15.615c-14.981,12.104-30.053,23.568-44.109,34.153
		c-15.846,11.937-32.862,22.074-49.317,31.875l-17.743,10.562c-12.346,7.346-24.692,14.69-37.022,22.069
		c-3.825,2.284-7.655,4.562-11.485,6.837c-11.467,6.813-23.325,13.859-34.8,21.096c-8.799,5.548-17.588,11.486-26.088,17.228
		c-4.592,3.103-9.183,6.207-13.799,9.264c-0.331,0.219-0.667,0.509-1.014,0.802c-1.012,0.855-2.256,1.904-3.74,1.904
		c-0.118,0-0.237-0.006-0.357-0.021c-1.016-0.106-1.881-0.695-2.644-1.728c-0.241-0.326-0.44-0.654-0.605-0.985
		c-11.562,6.665-23.124,13.003-34.686,19.7c-2.825,4.547-6.488,7.804-10.061,10.955c-1.017,0.897-2.027,1.788-3.007,2.7
		c-14.456,13.481-30.838,28.759-48.989,41.115c-20.18,13.74-42.074,26.338-65.077,37.436c-13.078,6.31-25.53,14.334-37.572,22.095
		c-3.21,2.068-6.417,4.135-9.642,6.176c-1.166,0.735-2.319,1.494-3.472,2.253c-3.624,2.382-7.37,4.843-11.488,6.626
		c-0.846,0.364-1.97,0.85-3.098,0.85c-0.192,0-0.384-0.014-0.576-0.046c-0.973-0.159-1.915-0.764-2.644-2.204
		c-0.229-0.455-0.378-0.884-0.465-1.292c-31.555,15.438-63.473,29.171-93.232,47.089c1.643,2.798-0.988,5.693-2.789,7.637
		c-0.43,0.464-0.849,0.915-1.198,1.342c-13.332,16.286-30.781,25.672-53.341,28.693c-4.392,0.589-8.679,2.578-13.042,6.06
		c6.914,1.837,12.91,4.917,18.73,7.91c1.32,0.678,2.639,1.354,3.963,2.015c9.395,4.691,17.464,7.865,26.287,8.091
		c0.46,0.012,0.918,0.019,1.371,0.019c15.261,0,27.062-6.867,36.046-20.955c10.147-15.918,19.248-27.011,29.508-35.968
		c4.385-3.829,8.839-5.744,13.311-5.744c2.611,0,5.228,0.653,7.841,1.959c5.977,2.997,12.491,4.401,18.789,5.761l1.527,0.333
		c1.969,0.422,3.899,0.633,5.789,0.633c6.455,0,12.432-2.464,17.829-7.408c4.019-3.678,6.732-8.269,9.605-13.13
		c0.655-1.107,1.312-2.217,1.983-3.315c0.576-0.942,1.117-1.914,1.661-2.89c1.977-3.55,4.022-7.218,7.825-9.859l1.536-1.067
		l0.601,1.799c1.51,4.517,1.92,8.819,2.268,13.575c0.213,2.899,0.414,5.801,0.616,8.705c0.99,14.271,2.013,29.029,4.498,43.322
		c4.167,23.979,12.142,39.906,25.854,51.645c8.458,7.242,17.126,10.864,25.937,10.864c8.429,0,16.989-3.314,25.626-9.942
		c17.389-13.341,26.886-32.971,28.23-58.348c1.1-20.816-0.978-41.267-3.155-58.528c-2.412-19.119-1.493-36.237,2.808-52.332
		c3.725-13.944,10.214-26.93,16.488-39.488c1.466-2.931,2.929-5.862,4.36-8.804c0.63-1.298,1.779-2.484,2.926-3.019
		c7.899-3.671,16.728-6.969,26.027-6.969c5.603,0,11.376,1.197,17.223,4.233c7.397,3.845,13.879,7.981,19.817,12.648
		c7.46,5.86,16.555,8.827,27.082,8.827c1.089,0,2.193-0.031,3.312-0.096c13.325-0.746,23.854-8.306,32.185-23.113
		c4.543-8.073,7.689-16.975,10.732-25.584c1.822-5.155,3.707-10.487,5.88-15.62c5.511-13.015,11.213-25.547,20.37-35.869
		c5.745-6.474,11.453-9.621,17.92-9.621c3.643,0,7.527,0.998,11.795,2.963c1.074,0.493,2.14,1.005,3.206,1.514
		c1.468,0.703,2.937,1.405,4.425,2.064c11.258,4.995,21.48,7.658,31.254,8.137c0.765,0.038,1.522,0.057,2.268,0.057
		c16.19,0,27.947-8.913,36.869-27.877c3.346-7.109,5.772-14.783,8.118-22.206c2.463-7.787,5.009-15.836,8.64-23.373
		c0.764-1.588,1.498-3.198,2.234-4.809c3.175-6.953,6.457-14.14,12.422-20.221l1.835-1.87l1.018,4.686
		c0.264,1.204,0.489,2.22,0.692,3.241c5.051,25.278,11.156,54.598,19.711,82.664c5.509,18.078,13.915,38.089,34.495,49.449
		c5.165,2.854,10.209,4.255,14.951,4.255c9.152,0,17.174-5.216,22.756-15.26c6.138-11.042,7.288-23.246,7.938-34.798
		c1.096-19.434-0.09-39.053-3.621-59.978c-0.643-3.809-1.305-7.615-1.966-11.424c-5.12-29.495-10.414-59.997-6.955-91.072
		c0.046-0.405-0.001-0.914-0.051-1.454c-0.143-1.564-0.411-4.475,2.982-5.346c0.467-0.12,0.903-0.175,1.306-0.175
		c3.008,0,4.31,3.047,5.048,4.779l0.139,0.322c1.899,4.385,3.52,8.965,5.086,13.397l1.039,2.933
		c4.141,11.595,10.442,20.076,19.265,25.926c4.51,2.992,8.393,3.983,11.557,3.983c2.271,0,4.172-0.51,5.668-1.157
		c4.615-1.995,8.138-6.552,9.421-12.187c2.439-10.708,3.281-22.211,2.651-36.202c-0.548-12.157-0.576-23.102,4.642-33.927
		c10.013-20.781,25.421-37.989,47.107-52.608c0.811-0.547,1.681-0.922,2.521-1.283c1.266-0.544,2.4-1.033,3.249-2.037l-6.065-4.079
		c-7.881-5.302-15.717-10.573-23.528-15.881c-0.472-0.32-0.81-0.448-1.083-0.448c-0.347,0-0.588,0.209-0.864,0.499
		c-6.545,6.874-14.674,11.122-22.532,15.23c-1.414,0.737-2.828,1.477-4.233,2.23l-5.721,3.085
		c-10.12,5.469-20.584,11.125-31.403,15.765l-1.553,0.667l-0.373-1.693c-0.046-0.211-0.058-0.401-0.078-0.597
		c-15.103,13.176-29.87,27.025-46.128,37.891C842.835,588.107,835.183,594.723,828.763,599.378z M421.735,1038.015l-0.199,0.474
		c-4.011,9.977-9.627,17.519-17.17,23.061c-2.321,1.703-4.627,2.556-6.95,2.556c-0.518,0-1.037-0.042-1.557-0.127
		c-1.748-0.286-3.508-1.051-5.298-2.293c-9.666-6.709-15.461-17.066-17.717-31.663c-3.358-21.723-6.547-44.918-5.466-68.703
		c0.245-5.421,1.552-10.82,2.818-16.042c0.574-2.37,1.148-4.742,1.627-7.116l1.043-5.193l1.71,4.957
		c4.199,12.171,6.795,24.805,9.305,37.027c1.686,8.202,3.425,16.669,5.632,24.879c0.811-0.562,1.305-1.369,1.883-2.316
		c0.271-0.442,0.538-0.88,0.832-1.286c0.818-1.128,1.612-2.281,2.403-3.43c1.556-2.257,3.165-4.595,4.954-6.748
		c1.882-2.269,4.067-3.439,6.244-3.439c1.236,0,2.47,0.377,3.644,1.143c3.277,2.144,2.113,5.646,1.417,7.741
		c-0.117,0.352-0.231,0.695-0.324,1.024c-0.655,2.3-1.504,4.55-2.324,6.726c-0.824,2.186-1.679,4.448-2.303,6.696
		c-2.45,8.813-2.164,17.708,0.851,26.439c0.523,1.519,1.295,2.458,2.291,2.789c0.303,0.1,0.634,0.149,0.991,0.149
		c1.34,0,3.042-0.698,4.989-2.07c0.217-0.152,0.433-0.318,0.65-0.484c0.84-0.651,2.051-1.583,3.423-1.584
		c0.727,0,1.5,0.263,2.287,0.97C423.456,1033.977,422.336,1036.603,421.735,1038.015z M591.195,846.797
		c-0.542,5.633-3.556,11.007-8.486,15.132c-5.314,4.446-12.102,6.857-19.073,6.857c-1.287,0-2.581-0.083-3.872-0.249l-0.081-0.01
		l-0.077-0.021c-9.246-2.316-16.585-9.961-21.223-22.106l-0.499-1.265c-1.192-2.982-2.541-6.36-1.536-10.212
		c0.048-0.182,0.076-0.379,0.108-0.576c0.143-0.885,0.44-2.73,2.382-3.215c0.269-0.067,0.519-0.097,0.754-0.097
		c1.503,0,2.334,1.233,2.815,1.934l0.276,0.393c5.92,7.84,13.526,12.117,22.592,12.707c1.405,0.092,2.826,0.163,4.243,0.163
		c4.802,0,9.575-0.817,13.63-4.417c0.757-0.674,2.253-2.004,3.997-2.004c0.644,0,1.322,0.182,2.01,0.645
		C591.642,842.136,591.351,845.167,591.195,846.797z M721.41,773.321c-4.066,1.634-8.071,2.456-12.037,2.456
		c-1.55,0-3.095-0.125-4.635-0.377c-6.465-1.055-12.851-4.326-19.268-9.834c-7.021-6.025-10.63-13.963-10.726-23.589l-0.041-4.025
		l2.551,2.984c4.784,5.595,9.571,9.478,15.067,12.215c4.268,2.13,8.85,3.168,13.455,3.168c8.433,0,16.941-3.481,23.735-10.106
		c0.219-0.214,0.413-0.482,0.611-0.746c0.569-0.756,1.542-2.045,3.049-2.045c0.328,0,0.68,0.061,1.058,0.201
		c2.657,0.986,2.941,3.872,3.128,5.782C738.281,758.893,731.274,769.357,721.41,773.321z M887.724,586.158
		c1.279-5.012,6.052-5.726,7.622-5.963c0.331-0.05,0.64-0.073,0.929-0.073c3.502,0,4.149,3.429,4.507,5.338l0.102,0.533
		c0.992,4.988,1.761,10.088,2.506,15.024c1.145,7.58,2.328,15.419,4.33,22.904c0.518,1.94,1.116,3.853,1.806,6.062
		c0.351,1.123,0.727,2.324,1.126,3.642l1.021,3.363l-3.031-1.542c-5.705-2.902-8.356-7.335-10.581-11.628
		c-5.769-11.128-9.273-21.47-10.709-31.626C887.084,590.298,887.217,588.155,887.724,586.158z M853.69,765.817
		c0.943,0.175,3.447,0.637,2.979,3.81l-0.172,1.177c-1.251,8.555-2.544,17.399-8.616,24.698c-2.024,2.429-4.181,3.645-6.454,3.645
		c-0.353,0-0.707-0.029-1.065-0.088c-1.46-0.238-2.964-0.961-4.51-2.175c-5.605-4.396-9.037-9.77-10.49-16.433
		c-7.528-34.485-15.855-69.264-24.751-103.373c-0.36-1.376-0.514-2.779-0.663-4.136c-0.066-0.601-0.133-1.203-0.217-1.798
		l-0.162-1.137l3.556-1.652l0.556,1.397c0.98,2.46,1.877,4.957,2.775,7.457c1.617,4.496,3.288,9.144,5.425,13.446
		c4.973,10.004,10.09,19.615,17.983,27.275c0.143,0.136,0.28,0.31,0.41,0.485c8.365,2.3,8.15,9.305,7.977,14.946
		c-0.024,0.744-0.046,1.491-0.053,2.232c-0.074,8.687,3.03,16.543,5.744,22.414c1.644,3.557,4.512,5.987,9.029,7.641
		C853.192,765.733,853.443,765.771,853.69,765.817z"/>
	<path fill="#4D0E02" d="M133.774,991.017c0.301,1.64-0.494,3.362-2.361,5.115c-3.918,3.679-7.547,6.595-11.096,8.91
		c-9.711,6.331-16.592,15.427-22.042,23.486c-0.259,0.383-0.497,0.809-0.739,1.242c-0.908,1.615-2.219,3.948-4.78,3.948
		c-0.237,0-0.483-0.02-0.742-0.062c-0.169-0.027-0.341-0.064-0.519-0.111c-3.381-0.89-3.834-4.443-4.134-6.795l-0.108-0.819
		c-0.836-5.743-0.636-11.917,0.633-19.429c3.845-22.769,9.854-40.44,18.912-55.606c0.232-0.39,0.457-0.819,0.689-1.259
		c1.044-1.986,2.546-4.867,5.454-4.867c0.437,0,0.907,0.065,1.411,0.208c3.898,1.09,5.673,4.665,4.748,9.563
		c-0.222,1.168-0.237,2.454-0.253,3.695c-0.021,1.697-0.042,3.448-0.584,5.004c-1.246,6.389-1.656,12.818-1.288,20.221
		c0.073,1.448,0.225,4.468,0.764,4.871c0.095,0.07,0.264,0.1,0.487,0.1c0.947,0,2.86-0.548,4.094-0.908l0.73-0.219
		c1.191-0.364,2.485-0.758,3.889-0.758c0.759,0,1.55,0.115,2.373,0.412C131.994,987.933,133.455,989.261,133.774,991.017z
		 M366.017,499.158c-4.994-13.765-6.469-27.823-4.493-41.939c2.073-23.029,12.242-42.134,21.216-56.538
		c5.532-8.878,11.553-17.341,17.452-25.632c4.469-6.283,9.091-12.78,13.294-19.211c2.182-3.339,4.151-7.168,6.247-11.242
		c1.24-2.412,2.577-4.996,4.037-7.624c12.625-28.796,34.815-45.674,66.048-50.115c6.598-0.937,12.875-1.407,18.883-1.407
		c8.618,0,16.682,0.966,24.358,2.904c8.596,2.169,16.426,6.601,23.997,10.888c1.483,0.842,2.966,1.68,4.454,2.502
		c18.648,10.321,33.759,21.204,46.197,33.274c6.266,6.08,10.531,13.665,14.657,20.998c1.143,2.036,2.288,4.071,3.475,6.076
		c7.564,12.78,14.797,26.978,16.493,44.172c0.913,9.246,0.39,18.267-1.596,27.574c-2.256,22.429-11.953,43.81-28.826,63.549
		c-3.522,4.121-8,7.127-12.332,10.035c-2.07,1.39-4.209,2.824-6.185,4.348c-17.784,13.716-38.319,21.361-58.178,28.755
		c-10.857,4.04-21.232,9.971-31.265,15.707c-2.546,1.457-5.089,2.909-7.641,4.336c-10.371,5.792-21.417,8.64-33.903,8.64
		c-4.952,0-10.131-0.448-15.585-1.338c-1.106-0.18-2.224-0.378-3.353-0.595c-24.887-4.776-44.151-15.604-58.89-33.096
		C375.542,523.462,370.316,511.013,366.017,499.158z M378.628,464.899c-0.185,19.33,6.481,36.416,20.38,52.23
		c12.469,14.192,28.52,19.969,48.786,24.279l0.004,0.001c4.234,0.916,8.349,1.375,12.363,1.375c9.349,0,18.153-2.493,26.661-7.523
		c4.04-2.386,8.407-4.713,14.162-7.543l4.764-2.354c12.904-6.392,26.247-13,40.502-16.981c10.813-3.023,20.54-9.354,29.946-15.477
		c2.357-1.533,4.714-3.069,7.09-4.554c9.456-5.919,19.223-12.638,25.613-23.871c3.286-5.777,7.013-12.324,8.532-19.313
		c0.361-1.668,0.738-3.337,1.116-5.006c2.02-8.946,4.11-18.194,3.898-27.622c-0.24-10.689-3.549-20.783-10.727-32.728
		c-1.688-2.807-3.267-5.739-4.795-8.57c-4.312-7.999-8.385-15.553-15.037-21.414c-14.6-12.86-28.826-22.821-43.492-30.447
		c-2.164-1.125-4.293-2.339-6.424-3.556c-5.992-3.42-12.187-6.96-19.029-8.225c-0.482-0.09-0.964-0.175-1.447-0.254
		c-3.647-0.595-7.355-0.895-11.158-0.895c-10.343,0-21.405,2.216-33.955,6.741c-14.393,5.187-25.434,13.812-33.756,26.371
		c-1.194,1.801-2.281,3.691-3.344,5.591c-0.087,0.207-0.184,0.4-0.27,0.609l-0.942,2.312c-1.978,4.88-4.22,10.412-7.722,15.644
		c-7.181,10.731-14.669,21.397-21.924,31.731l-0.1,0.142c-3.084,4.393-6.171,8.789-9.24,13.198
		c-7.434,10.679-13.173,23.576-18.061,40.591c-0.955,3.325-1.636,6.65-2.111,9.971C378.758,461.182,378.646,463.024,378.628,464.899
		z M440.613,487.625c4.082,2.581,8.849,5.097,14.073,5.95c1.205,0.197,2.434,0.305,3.685,0.305c4.086,0,8.401-1.154,12.846-4.146
		l1.328-0.893l-0.953-1.289c-0.096-0.131-0.178-0.272-0.258-0.407c-0.28-0.464-0.626-1.046-1.28-1.36
		c-23.193-11.341-23.276-36.693-16.302-54.954c4.218-11.044,11.983-19.554,23.078-25.297c8.869-4.589,17.253-6.881,25.278-6.881
		c7.277,0.001,14.26,1.885,21.037,5.65c1.396,0.781,2.534,1.138,3.525,1.138c1.782,0,3.087-1.156,4.561-3.086
		c10.063-13.142,21.141-20.624,34.865-23.543l3.264-0.696l-2.688-1.997c-11.146-8.286-21.088-13.672-31.288-16.948l-1.805-0.582
		c-8.861-2.858-17.984-5.808-27.532-5.808c-1.306,0-2.62,0.055-3.942,0.173c-22.226,1.983-39.721,8.676-53.489,20.465
		c-22.599,19.356-32.974,43.244-30.835,71C419.351,464.78,426.819,478.913,440.613,487.625z M561.318,436.41l0.489,1.234
		c0.175,0.459,0.305,0.937,0.437,1.416c0.207,0.752,0.423,1.532,0.782,2.291c1.511,3.2,3.576,5.234,5.817,5.728
		c0.095,0.021,0.19,0.04,0.284,0.055c0.271,0.044,0.542,0.066,0.811,0.066c1.283,0,2.542-0.499,3.692-1.471
		c3.72-3.145,5.678-7.336,7.571-11.393c0.324-0.692,0.645-1.382,0.974-2.058l0.13-0.269l0.021-0.302
		c0.165-2.348-0.002-4.794-2.306-6.793c-2.204-1.916-6.014-3.062-9.694-3.062c-2.927,0-5.772,0.725-7.662,2.363
		C558.03,428.234,559.853,432.766,561.318,436.41z M442.442,603.246c-0.325-0.043-0.65-0.065-0.978-0.065
		c-2.115,0-4.27,0.902-6.286,2.64c-1.189,1.026-2.326,2.119-3.462,3.213c-0.556,0.536-1.113,1.071-1.677,1.599
		c-7.279,6.814-12.444,15.673-16.255,27.879l-0.023,0.082c-0.819,3.232,0.101,5.121,1.018,6.135
		c0.544,0.602,1.136,0.892,1.724,0.988c0.158,0.026,0.316,0.038,0.473,0.038c1.188,0,2.303-0.676,2.915-1.046l0.395-0.235
		c13.255-7.329,22.636-17.174,28.675-30.094c1.201-2.57,1.059-4.727-0.462-6.988C446.885,604.992,444.745,603.586,442.442,603.246z
		 M332.035,634.119c-0.994,5.204,0.05,10.438,2.937,14.741c2.948,4.396,7.423,7.275,12.613,8.122
		c0.058,0.009,0.118,0.019,0.175,0.029c0.813,0.125,1.656,0.198,2.519,0.198c5.948,0,12.736-3.492,15.788-17.651
		c0.904-4.201,0.289-8.118-1.782-11.326c-2.406-3.735-6.685-6.282-12.051-7.175l-0.038-0.006c-1.501-0.206-2.92-0.308-4.261-0.308
		C339.076,620.741,333.735,625.226,332.035,634.119z M666.723,346.761c0.113,0.021,0.223,0.042,0.332,0.06
		c0.39,0.064,0.769,0.094,1.135,0.094c6.589,0,9.327-9.867,10.401-13.743c0.605-2.178,0.159-4.664-1.26-6.996
		c-1.793-2.949-4.742-5.077-7.707-5.561c-0.013-0.002-0.023-0.004-0.036-0.006c-0.689-0.11-1.41-0.162-2.15-0.162
		c-5.742,0.001-12.549,3.171-13.281,7.542C653.082,334.411,660.48,345.464,666.723,346.761z M325.476,592.636
		c0.311,0.134,0.608,0.221,0.889,0.267c0.171,0.028,0.336,0.041,0.497,0.041c2.147,0,3.393-2.362,4.048-3.603
		c0.15-0.281,0.29-0.552,0.43-0.785c8.543-14.253,14.586-27.493,18.48-40.478c0.129-0.433,0.274-0.876,0.421-1.326
		c0.955-2.937,2.144-6.592,0.16-9.976c-1.29-2.204-3.483-3.467-6.069-3.467c-0.133,0-0.267,0.003-0.402,0.01
		c-3.316,0.144-6.385,2.226-8.008,5.431c-6.469,12.769-8.939,25.123-9.872,33.254l-0.763,4.687l-1.452,8.872l-0.162,0.858
		C323.303,588.298,322.681,591.441,325.476,592.636z M176.188,925.559c-0.517-0.125-1.051-0.187-1.596-0.187
		c-1.607,0-3.306,0.539-4.912,1.58c-2.843,1.848-5.007,4.974-5.789,8.363c-1.461,6.332,3.009,14.811,8.542,16.201
		c0.162,0.041,0.328,0.077,0.497,0.105c0.374,0.061,0.769,0.09,1.181,0.09c2.453,0,5.518-1.061,8.551-3.008
		c3.743-2.405,6.358-5.474,6.996-8.207C190.929,935.026,184.131,927.491,176.188,925.559z M717.574,286.661
		c4.18,1.955,8.379,3.863,12.506,5.742l5.379,2.451l0.505-0.158c0.106-0.033,0.231-0.046,0.368-0.046c0.222,0,0.477,0.034,0.74,0.07
		c0.242,0.031,0.554,0.072,0.898,0.072c0.901,0,2.004-0.283,2.538-1.767c0.558-1.541-0.092-3.704-0.985-4.954
		c-3.619-5.063-8.366-9.812-14.512-14.522c-1.129-0.865-2.282-1.304-3.44-1.304c-0.266,0-0.531,0.023-0.797,0.069
		c-2.728,0.463-4.65,3.224-6.054,5.242l-0.199,0.285c-1.25,1.791-1.207,3.409-0.951,4.454
		C714.013,284.085,715.472,285.677,717.574,286.661z M511.382,437.673c-1.115-0.686-2.951-0.996-5.014-0.996
		c-4.129,0-9.17,1.239-11.168,3.175c-3.667,3.554-2.255,7.278-1.121,10.27c0.219,0.579,0.438,1.155,0.621,1.731l0.278,0.912
		c0.48,1.616,1.028,3.447,2.387,4.999c1.986,2.259,3.861,3.512,5.708,3.813c0.243,0.04,0.486,0.064,0.727,0.071
		c0.049,0.001,0.098,0.002,0.147,0.002c1.562,0,3.044-0.682,4.405-2.034c3.258-3.232,6.375-7.012,7.172-12.767
		C516.471,444.333,516.459,440.766,511.382,437.673z M451.817,264.492c0.046,0.007,0.09,0.018,0.136,0.025
		c0.254,0.041,0.512,0.06,0.771,0.06c2.266,0,4.655-1.46,5.969-2.409c2.526-1.826,5.68-5.14,6.255-8.459
		c0.306-1.761-0.247-3.792-1.557-5.724c-1.766-2.606-4.496-4.491-7.128-4.921c-0.001,0-0.004-0.001-0.006-0.001
		c-0.586-0.095-1.175-0.142-1.763-0.142c-2.415,0-4.802,0.788-6.743,2.259c-2.213,1.678-3.668,4.076-4.097,6.754
		C442.733,257.697,446.47,263.447,451.817,264.492z M673.648,610.303c2.424-15.648-5.953-31.483-19.033-38.873
		c-3.884-2.594-8.068-4.433-12.258-5.126c-1.763-0.432-3.56-0.646-5.368-0.646c-5.034,0-10.148,1.657-14.815,4.867
		c-6.535,4.496-11.607,11.621-14.295,19.705c-0.104,0.298-0.198,0.601-0.296,0.903c-0.173,0.565-0.351,1.125-0.5,1.698
		c-0.385,1.395-0.725,2.811-0.966,4.267c-1.727,10.472,0.633,21.289,6.474,29.686c4.905,7.055,11.86,11.595,19.582,12.783
		c1.498,0.221,2.927,0.324,4.365,0.324C651.895,639.891,671.027,627.237,673.648,610.303z M633.322,662.712l-0.597-0.258
		c-0.977-0.422-1.966-0.58-2.922-0.58c-1.334,0-2.603,0.308-3.677,0.634c-6.767,2.048-12.875,6.079-18.673,12.33
		c-3.882,4.184-6.759,8.229-8.549,12.02l-0.118,0.358c-0.336,1.658-0.619,4.019,0.785,5.376c0.469,0.453,1.018,0.686,1.594,0.779
		c0.217,0.035,0.437,0.051,0.66,0.051c0.988,0,1.997-0.308,2.786-0.548l0.431-0.131c10.221-2.971,20.166-8.558,30.404-17.079
		c1.602-1.332,4.283-3.566,3.697-7.081C638.532,664.921,635.643,663.696,633.322,662.712z M513.872,599.376
		c-3.35,0-6.984,1.125-9.399,3.002c-1.542,1.2-2.468,2.616-2.675,4.093c-0.611,4.358,5.832,14.468,9.711,15.237
		c0.085,0.017,0.172,0.031,0.258,0.045c0.42,0.069,0.841,0.103,1.262,0.103c1.815,0,3.626-0.634,5.311-1.87
		c3.057-2.247,5.309-6.293,6.023-10.824c0.41-2.598-0.179-4.855-1.703-6.529c-1.445-1.586-3.734-2.725-6.701-3.1
		C515.287,599.427,514.586,599.376,513.872,599.376z M753.804,644.913c-2.686,2.194-5.558,4.278-8.336,6.291
		c-3.703,2.687-7.532,5.461-11.034,8.579c-9.401,8.364-20.008,15.276-30.264,21.961c-3.955,2.578-7.91,5.153-11.812,7.816
		c-6.587,4.496-13.586,8.56-20.356,12.492c-6.733,3.911-13.697,7.954-20.308,12.446c-9.736,6.615-19.974,12.824-29.876,18.828
		c-5.826,3.531-11.654,7.065-17.421,10.7c-10.417,6.563-20.63,13.439-28.362,18.692c-0.842,0.572-1.329,0.807-1.594,0.906
		c-0.051-0.263-0.1-0.755-0.066-1.64c0.032-0.832-0.143-1.608-0.296-2.292c-0.081-0.366-0.167-0.733-0.207-1.099
		c-2.486-23.016-9.344-40.554-21.584-55.189c-10.667-12.755-21.954-21.115-35.514-26.31c-9.661-3.706-20.81-7.313-32.223-7.313
		c-2.092,0-4.196,0.121-6.299,0.386c-32.411,4.072-69.43,10.696-98.58,37.908c-1.575,1.47-3.183,2.903-4.791,4.332
		c-4.917,4.38-10.001,8.907-14.103,14.548c-11.2,15.402-15.865,33.113-20.028,51.423c-0.328,1.448-0.799,2.858-1.299,4.35
		c-0.866,2.589-1.761,5.269-1.854,8.171c-0.412,13.001,0.806,25.748,2.054,36.504c2.862,24.731,14.057,44.965,27.3,66.979
		c0.728,1.208,1.829,3.039,1.602,3.758c-0.094,0.299-0.576,0.939-2.754,1.877c-6.011,2.581-11.869,6.235-16.574,9.168
		c-10.113,6.307-19.746,13.651-29.063,20.752c-5.925,4.518-12.053,9.187-18.224,13.532c-1.129,0.792-4.126,2.9-2.328,6.461
		c0.729,1.44,1.671,2.045,2.644,2.204c0.192,0.031,0.383,0.046,0.576,0.046c1.129,0,2.253-0.486,3.098-0.85
		c4.118-1.783,7.863-4.243,11.488-6.626c1.153-0.759,2.305-1.518,3.472-2.253c3.225-2.041,6.433-4.109,9.642-6.176
		c12.043-7.761,24.494-15.785,37.572-22.095c23.002-11.098,44.896-23.695,65.077-37.436c18.15-12.356,34.532-27.634,48.989-41.115
		c0.98-0.912,1.99-1.803,3.007-2.7c4.277-3.772,8.699-7.669,11.636-13.784l1.31-2.731l-2.855,0.606
		c-0.519,0.111-0.956,0.185-1.337,0.247c-0.778,0.135-1.393,0.237-2.023,0.513c-13.453,5.86-25.784,13.123-36.654,21.592
		c-4.388,3.419-8.728,7.041-12.925,10.544c-8.936,7.457-18.176,15.168-28.289,21.247c-3.269,1.966-6.481,4.032-9.694,6.103
		c-5.675,3.651-11.542,7.427-17.615,10.52c-0.251,0.128-0.497,0.272-0.742,0.416c-0.298,0.178-0.799,0.473-0.955,0.473
		c-0.001,0-0.002,0-0.003,0c-0.001-0.001-0.174-0.073-0.465-0.539c-2.284-3.658-4.857-7.174-7.344-10.577
		c-4.377-5.985-8.903-12.176-11.842-19.147c-5.718-13.561-10.941-28.343-10.439-44.549c0.086-2.737-0.068-5.511-0.218-8.192
		c-0.308-5.526-0.598-10.744,1.017-15.763c1.298-4.029,2.301-8.163,3.272-12.16c0.434-1.79,0.868-3.58,1.326-5.355
		c3.862-14.937,8.749-30.437,22.082-41.407c1.875-1.543,3.683-3.177,5.489-4.812l1.448-1.307c1.295-1.166,2.57-2.371,3.845-3.575
		c4.268-4.038,8.68-8.209,13.873-10.659c19.472-9.178,37.498-15.435,55.106-19.124c5.893-1.234,11.661-1.853,17.323-1.853
		c16.981,0,33.01,5.569,48.605,16.826c3.071,2.22,5.111,5.286,7.271,8.535c1.657,2.493,3.371,5.073,5.596,7.241
		c4.221,4.108,7.099,9.864,9.057,18.114c2.082,8.76,2.954,18.54,2.748,30.782c-0.09,5.378-0.966,10.786-6.701,13.904
		c-3.178,1.725-6.057,4.039-8.842,6.28c-1.309,1.054-2.618,2.107-3.958,3.1c-1.809,1.337-3.525,2.87-3.844,5.003
		c-0.194,1.295,0.175,2.578,1.094,3.82c0.763,1.033,1.628,1.622,2.644,1.728c0.12,0.014,0.239,0.021,0.357,0.021
		c1.483,0,2.727-1.049,3.74-1.904c0.347-0.294,0.683-0.583,1.014-0.802c4.616-3.057,9.208-6.161,13.799-9.264
		c8.5-5.742,17.289-11.681,26.088-17.228c11.475-7.236,23.333-14.283,34.8-21.096c3.83-2.275,7.66-4.553,11.485-6.837
		c12.33-7.379,24.676-14.722,37.022-22.069l17.743-10.562c16.456-9.801,33.472-19.938,49.317-31.875
		c14.056-10.585,29.128-22.048,44.109-34.153c6.151-4.974,12.122-10.384,17.895-15.615c3.23-2.928,6.463-5.855,9.738-8.722
		c3.537-3.097,6.98-6.4,10.309-9.593c5.729-5.494,11.654-11.179,18.177-15.908c6.96-5.047,15.425-12.344,19.136-24.085l0.975-3.088
		l-2.874,1.255c-14.248,6.223-29.082,13.65-41.037,25.78C787.624,616.825,769.372,632.198,753.804,644.913z M732.982,406.937
		c11.46,2.601,21.195,10.826,25.409,21.466c6.581,16.625,1.655,32.193-0.992,40.56c-0.188,0.594-0.403,1.153-0.597,1.74
		c2.953-1.801,6.136-3.41,9.618-4.745c2.911-1.116,6.617-2.415,10.856-3.423c0.02-0.005,0.04-0.014,0.06-0.019
		c4.525-1.225,9.021-1.837,13.472-1.837c8.18,0,16.207,2.066,23.985,6.189c2.405,1.273,4.379,3.108,5.906,5.3
		c2.172,2.428,4.078,5.588,4.911,9.742c0.735,3.66,0.279,7.46-1.299,10.843c-3.026,6.489-6.682,11.492-11.508,15.747
		c-0.188,0.166-0.381,0.315-0.571,0.478c-7.763,8.222-18.341,14.285-32.349,18.618c-13.368,4.14-27.927,6.549-44.51,7.366
		c-0.372,0.018-0.739,0.027-1.1,0.027c-1.158,0-2.263-0.092-3.318-0.265c-6.748-1.101-11.498-5.489-15.42-10.139
		c-2.063-0.884-3.97-2.162-5.591-3.811c-16.499-16.785-24.871-34.8-25.594-55.074c-0.735-20.57,6.276-38.398,20.265-51.55
		c5.529-5.203,12.922-8.069,20.815-8.069c1.798,0,3.626,0.15,5.438,0.445C731.589,406.644,732.313,406.783,732.982,406.937z
		 M743.555,508.682c-1.626,2.146-3.253,4.287-4.916,6.386c-0.073,0.179-0.16,0.35-0.238,0.526c0.14-0.027,0.263-0.049,0.49-0.106
		l0.589-0.138c4.109-0.861,8.227-1.673,12.344-2.485c5.461-1.077,10.921-2.154,16.361-3.34c10.925-2.384,22.321-5.424,31.758-13.145
		c2.435-2.681,4.487-5.63,6.108-8.971c0.9-1.854,0.851-3.533,0.596-4.507c-0.753-0.552-1.659-1.044-2.659-1.531
		c-2.725-1.326-5.46-2.152-8.158-2.593c-1.715-0.28-3.416-0.404-5.093-0.404c-3.107,0-6.125,0.437-9.002,1.099
		c-5.391,1.489-10.825,4.109-16.607,8.025c-1.556,1.054-3.242,1.814-4.986,2.315C753.888,495.056,748.81,501.745,743.555,508.682z
		 M728.782,425.253c-0.782-0.111-1.544-0.167-2.266-0.167c-2.39,0-3.619,0.602-3.854,0.808
		c-12.845,12.236-17.764,26.807-15.04,44.548c1.821,11.863,6.872,23.332,15.769,35.687c2.219-5.664,4.622-11.211,6.996-16.584
		c2.666-6.035,5.207-11.845,7.458-17.757c0.061-0.866,0.184-1.736,0.377-2.601c0.091-0.407,0.173-0.809,0.256-1.209l0.033-0.161
		c0.331-1.614,0.743-3.624,1.455-5.791c4.108-12.535,3.351-22.583-2.454-32.581C736.923,428.432,733.916,425.972,728.782,425.253z
		 M731.054,611.758c1.09,0,2.083-0.548,2.698-0.887c0.229-0.126,0.45-0.25,0.66-0.341c17.251-7.327,30.815-16.698,41.467-28.648
		c0.366-0.412,0.759-0.82,1.154-1.227c1.551-1.608,3.155-3.27,3.661-5.481l0.019-0.098c0.577-3.542-1.221-5.144-2.667-6.428
		l-0.369-0.33c-1.418-1.29-2.931-1.934-4.565-1.934c-1.346,0-2.774,0.437-4.298,1.31c-15.964,9.134-29.106,21.351-39.064,36.312
		c-0.152,0.23-0.368,0.453-0.585,0.691c-0.86,0.937-2.874,3.131-0.634,5.779c0.653,0.774,1.351,1.132,2.028,1.242
		C730.725,611.746,730.89,611.758,731.054,611.758z M843.941,758.009c-2.714-5.871-5.818-13.727-5.744-22.414
		c0.006-0.741,0.029-1.488,0.053-2.232c0.173-5.641,0.388-12.646-7.977-14.946c-0.13-0.176-0.268-0.349-0.41-0.485
		c-7.893-7.66-13.01-17.272-17.983-27.275c-2.137-4.302-3.809-8.95-5.425-13.446c-0.898-2.5-1.795-4.997-2.775-7.457l-0.556-1.397
		l-3.556,1.652l0.162,1.137c0.085,0.595,0.151,1.197,0.217,1.798c0.15,1.357,0.303,2.759,0.663,4.136
		c8.896,34.109,17.223,68.888,24.751,103.373c1.453,6.663,4.885,12.037,10.49,16.433c1.546,1.214,3.051,1.937,4.51,2.175
		c0.358,0.058,0.712,0.088,1.065,0.088c2.273,0,4.43-1.215,6.454-3.645c6.071-7.299,7.365-16.143,8.616-24.698l0.172-1.177
		c0.468-3.173-2.036-3.636-2.979-3.81c-0.247-0.046-0.498-0.084-0.72-0.168C848.453,763.995,845.585,761.565,843.941,758.009z
		 M234.33,781.879l0.797-0.122c1.793-0.274,2.885-1.473,3.894-2.582c26.637-29.05,45.602-54.97,59.764-81.719
		c1.539-2.907,3.647-6.887-1.074-10.272c-1.527-1.093-2.987-1.641-4.395-1.641c-2.141,0-4.159,1.268-6.097,3.817
		c-3.022,3.977-6.275,8.219-9.573,12.293c-17.107,21.14-31.917,45.337-44.019,71.921c-0.744,1.639-2.13,4.689,0.197,7.66
		L234.33,781.879z M1147.497,384.297c7.967,34.163-3.107,64.675-32.912,90.689c-28.365,24.756-61.03,40.741-94.794,56.261
		c-4.924,2.268-9.524,3.37-14.06,3.37c-0.161,0-0.321-0.001-0.48-0.004c-0.425,0.668-0.896,1.311-1.413,1.924
		c-3.514,4.158-7.541,5.891-9.705,6.821c-0.063,0.027-0.125,0.053-0.189,0.08c-18.758,12.756-32.036,27.587-40.585,45.33
		c-3.45,7.159-3.377,15.446-2.922,25.536c0.703,15.605-0.273,28.594-3.071,40.879c-2.519,11.057-9.826,20.167-19.551,24.371
		c-3.983,1.72-8.225,2.592-12.611,2.592c-7.189,0-14.334-2.322-21.233-6.899c-2.417-1.603-4.706-3.36-6.862-5.269
		c1.509,12.886,3.737,25.726,5.933,38.371l0.098,0.568c0.633,3.647,1.266,7.291,1.881,10.937
		c3.753,22.236,5.009,43.131,3.838,63.876c-0.731,12.987-2.177,28.039-10.115,42.32c-8.569,15.42-22.442,24.263-38.06,24.263
		c-7.81,0-15.69-2.167-23.412-6.435c-26.212-14.468-36.633-39.491-42.783-59.673c-4.516-14.815-8.351-29.892-11.711-44.54
		c-0.466,1.449-0.93,2.916-1.399,4.4c-2.402,7.599-5.125,16.211-8.969,24.377c-11.842,25.169-29.577,37.931-52.712,37.931
		c-1.031,0-2.075-0.026-3.125-0.078c-11.965-0.586-24.231-3.733-37.482-9.613c-1.647-0.728-3.274-1.504-4.889-2.277l-0.378-0.181
		c-0.859-0.411-1.718-0.822-2.603-1.228c-2.665-1.227-4.016-1.359-4.473-1.359c-0.932,0-2.78,1.431-4.823,3.732
		c-7.396,8.336-12.424,19.456-17.344,31.074c-1.964,4.64-3.757,9.712-5.499,14.64c-3.138,8.874-6.693,18.933-11.978,28.324
		c-11.336,20.148-26.969,30.917-46.452,32.009c-1.443,0.082-2.891,0.123-4.304,0.123c-14.531,0-27.282-4.228-37.902-12.57
		c-5.065-3.982-10.649-7.54-17.064-10.874c-2.974-1.545-5.883-2.263-9.156-2.263c-4.968,0-10.309,1.749-14.955,3.698
		c-0.893,1.806-1.794,3.609-2.695,5.41c-5.883,11.777-11.968,23.953-15.235,36.184c-3.707,13.866-4.476,28.788-2.353,45.617
		c2.274,18.027,4.441,39.448,3.269,61.646c-1.605,30.289-13.728,54.948-35.055,71.312c-11.725,8.998-23.933,13.56-36.286,13.56
		c-13.086,0-25.643-5.071-37.324-15.072c-16.793-14.375-26.872-34.06-31.718-61.948c-1.494-8.594-2.48-17.199-3.24-25.714
		c-8.21,6.874-17.821,10.494-27.931,10.494c-3.112,0-6.294-0.343-9.515-1.034l-1.521-0.331c-7.012-1.514-14.961-3.23-22.892-7.206
		c-0.347,0.181-0.954,0.559-1.814,1.309c-8.948,7.813-17.048,17.741-26.26,32.193c-12.119,19.004-29.689,29.049-50.808,29.049
		c-0.607,0-1.219-0.008-1.82-0.024c-12.759-0.327-23.718-4.966-33.663-9.931c-1.383-0.691-2.761-1.396-4.143-2.107
		c-5.208-2.677-10.127-5.205-15.223-6.56c-1.47-0.391-2.86-0.965-4.147-1.695c-0.098,0.098-0.198,0.196-0.297,0.294
		c-0.852,0.844-1.693,1.7-2.608,2.631c-5.961,6.072-13.381,13.629-24.686,17.342c-4.16,1.37-8.682,2.637-13.557,2.637
		c-14.788,0-21.821-11.475-24.131-15.246c-9.508-15.513-13.208-32.327-10.996-49.974c2.443-19.486,8.45-38.982,18.362-59.601
		c5.092-10.597,12.065-21.128,21.946-33.142c8.019-9.749,13.775-20.653,17.107-32.406c5.071-17.893,12.576-35.13,22.307-51.231
		c12.265-20.292,23.855-41.624,35.063-62.254c4.091-7.53,8.184-15.061,12.316-22.561c5.601-10.168,12.027-19.486,18.261-28.525
		c3.827-5.546,7.786-11.281,11.385-17.017c16.821-26.808,34.027-56.053,45.925-88.242c2.399-6.487,4.414-13.587,6.363-20.452
		c1.073-3.782,2.183-7.694,3.398-11.657c4.382-14.294,8.821-28.573,13.26-42.852l0.214-0.688l4.047-13.055
		c2.848-9.216,6.077-19.662,9.326-29.702c2.741-8.465,5.294-17.272,7.762-25.786c3.341-11.534,6.797-23.461,10.918-35.275
		c3.28-9.402,6.031-19.474,8.695-29.228l0.053-0.195c1.064-3.894,2.127-7.787,3.229-11.664
		c8.103-28.525,18.639-56.149,31.312-82.102c1.718-3.52,3.42-7.051,5.12-10.582l0.308-0.638
		c8.081-16.783,16.436-34.138,26.674-50.558c1.465-2.349,2.92-4.71,4.376-7.069c7.263-11.774,14.773-23.95,23.774-35.347
		c1.451-1.837,3.27-3.919,5.6-5.88c-1.069-2.697-1.689-5.747-1.8-9.09c-1.015-30.216,7.349-54.031,25.57-72.807
		c16.879-17.389,38.151-27.887,65.029-32.093c4.764-0.746,9.23-1.109,13.652-1.109c7.03,0,13.681,0.924,20.332,2.824
		c3.714,1.061,6.908,3.298,9.164,6.286c14.192-8.409,28.542-9.408,41.222-10.291c2.994-0.209,5.824-0.407,8.569-0.689
		c6.19-0.641,11.725-0.953,16.92-0.953c8.482,0,16.173,0.852,23.467,2.596c0.846,0.2,1.69,0.424,2.656,0.69
		c3.503,0.965,6.55,2.973,8.797,5.667c1.054-0.154,2.114-0.232,3.175-0.232c3.267,0,6.432,0.725,9.405,2.153
		c9.664,4.642,18.628,10.805,27.424,18.861c0.643,0.591,1.237,1.195,1.783,1.816c3.303-1.452,6.784-2.186,10.38-2.185
		c1.026,0,2.069,0.062,3.05,0.178c31.683,3.652,59.634,16.633,83.078,38.58c1.108,1.036,3.405,3.186,5.113,6.423
		c1.758-0.736,3.522-1.457,5.29-2.162c3.003-1.198,6.228-1.805,9.585-1.805c4.638,0,8.513,1.135,11.209,1.925l1.445,0.411
		c19.272,5.298,33.929,11.224,47.513,19.211c3.197,1.88,5.655,4.685,7.115,7.959c0.021,0,0.041,0,0.061,0
		c6.066,0,10.358,2.374,12.926,4.394c1.357,1.073,2.722,2.131,4.088,3.19l0.546,0.423c9.21,7.132,19.648,15.215,27.768,26.604
		c0.747,1.048,1.54,2.259,2.234,3.653c0.371-0.01,0.744-0.015,1.116-0.015c5.597,0,11.12,1.096,16.901,3.357
		c22.768,8.932,43.168,17.484,62.247,31.725c8.957,6.684,15.432,12.452,20.989,18.692c1.691,1.896,2.948,3.406,3.987,5.07
		c1.738,2.784,2.638,5.964,2.657,9.173c0.825-0.1,1.647-0.199,2.47-0.295c0.985-0.116,1.988-0.175,2.984-0.175
		c7.187,0,12.746,2.993,16.433,4.977c0.883,0.476,1.797,0.969,2.38,1.217c22.355,9.555,40.948,20.688,56.841,34.036
		c5.398,4.534,7.474,11.773,5.539,18.346c4.679,1.767,9.126,3.926,13.325,6.472c10.872,6.581,13.242,17.755,14.662,24.448
		C1147.177,382.855,1147.33,383.582,1147.497,384.297z M1130.445,388.273c-0.194-0.83-0.374-1.679-0.556-2.539
		c-1.088-5.128-2.214-10.432-6.598-13.085c-10.107-6.128-22.246-9.447-36.071-9.836c-1.146-0.033-2.303-0.05-3.471-0.05
		c-12.102,0-25.392,1.8-41.465,5.599c-23.787,5.616-48.491,13.623-68.017,34c-0.863,0.902-2.276,2.277-4.278,2.277
		c-0.209,0-0.424-0.015-0.645-0.047l-1.615-0.293l0.519-1.637c2.578-8.13,11.942-19.412,22.77-27.434
		c16.564-12.274,35.916-21.009,60.9-27.486c9.627-2.496,19.701-4.6,29.995-4.6c6.443,0,12.97,0.824,19.532,2.891
		c0.278,0.087,0.537,0.168,0.788,0.229c-14.549-12.219-31.725-22.48-52.462-31.343c-1.281-0.544-2.541-1.222-3.805-1.903
		c-2.746-1.479-5.353-2.881-8.126-2.881c-0.311,0-0.623,0.017-0.938,0.055c-32.598,3.831-66.719,10.48-95.416,32.975
		c-0.976,0.771-2.495,1.968-4,1.968c-0.746,0-1.488-0.294-2.159-1.079c-2.084-2.439,0.057-4.467,0.863-5.228
		c0.31-0.294,0.66-0.625,0.782-0.849c0.296-0.542,0.685-0.942,1.031-1.295l0.247-0.257c20.003-21.617,44.703-35.872,73.411-42.374
		c0.975-0.221,2.489-0.562,3.217-0.855c-0.452-0.724-1.598-2.012-2.202-2.689c-4.74-5.324-10.411-10.357-18.393-16.313
		c-17.332-12.937-36.599-20.996-58.169-29.458c-3.654-1.429-7.105-2.148-10.507-2.148c-4.273,0-8.467,1.134-12.887,3.421
		c-13.01,6.731-26.71,14.346-38.75,24.402c-1.628,1.358-3.218,2.867-4.756,4.329c-0.735,0.696-1.469,1.393-2.211,2.079l-1.153,1.064
		l-2.571-3.462l0.177-0.713c0.947-3.805,3.445-6.318,5.861-8.746c0.564-0.567,1.124-1.129,1.658-1.706
		c10.676-11.531,23.011-21.292,36.659-29.008c1.167-0.661,1.305-0.989,1.309-1.003c-0.003-0.104-0.122-0.486-0.945-1.641
		c-6.619-9.284-15.572-16.218-24.23-22.923c-1.594-1.237-3.19-2.471-4.774-3.723c-0.616-0.484-1.304-0.619-2.065-0.619
		c-0.452,0-0.93,0.048-1.434,0.098l-0.563,0.054c-1.208,0.106-2.421,0.196-3.635,0.286c-5.38,0.398-10.944,0.811-16.138,2.768
		l-0.598,0.244c-0.746,0.313-1.755,0.738-2.86,0.738c-1.006,0-2.092-0.351-3.132-1.457l-0.727-0.774l0.494-0.97
		c2.786-5.473,7.283-8.562,12.543-11.36c-12.193-7.169-25.697-12.593-43.349-17.441l-1.523-0.433
		c-2.133-0.625-4.317-1.258-6.423-1.258c-1.057,0-2.095,0.159-3.097,0.559c-15.801,6.299-31.177,13.914-45.702,22.629
		c-12.679,7.61-23.217,15.418-32.219,23.87c-0.894,0.842-1.736,1.262-2.518,1.262c-0.596,0-1.156-0.243-1.679-0.73
		c-0.455-0.427-1.797-2.003-0.078-4.47l0.393-0.565c0.609-0.874,1.218-1.748,1.854-2.603c13.524-18.118,31.505-30.725,50.288-43.096
		c1.561-1.03,2.395-1.71,2.482-2.026c-0.008-0.064-0.113-0.55-1.676-2.013c-20.585-19.271-45.174-30.748-73.118-33.969
		c-0.353-0.042-0.702-0.063-1.046-0.063c-1.458,0-2.842,0.376-4.205,1.141c-14.211,7.959-30.563,17.964-44.094,31.795l-0.349,0.367
		c-0.947,1.004-2.194,2.3-4.359,2.3c-0.452,0-0.945-0.057-1.484-0.185l-1.895-0.461l1.015-1.758
		c0.484-0.844,0.935-1.649,1.369-2.424c0.906-1.618,1.74-3.108,2.664-4.537c6.561-10.151,15.168-19.271,26.312-27.883
		c0.217-0.169,0.448-0.333,0.679-0.498c0.419-0.3,1.119-0.797,1.215-1.045c-0.014-0.002-0.105-0.353-0.876-1.06
		c-7.489-6.858-15.063-12.083-23.16-15.972c-0.592-0.285-1.195-0.427-1.825-0.427c-0.802,0-1.65,0.232-2.58,0.697l-2.152,1.076
		c-7.86,3.929-15.99,7.993-23.428,13.009c-0.209,0.141-0.417,0.294-0.625,0.45c-0.846,0.627-2.047,1.52-3.509,1.52
		c-0.892,0-1.882-0.333-2.947-1.261l-0.998-0.869l0.75-1.13c4.449-6.7,10.217-11.84,16.322-17.282
		c0.843-0.753,1.692-1.508,2.543-2.274c-0.74-0.204-1.386-0.377-2.034-0.531c-5.96-1.425-12.244-2.126-19.438-2.126
		c-4.613,0-9.6,0.288-15.116,0.86c-3.045,0.313-6.102,0.527-9.159,0.74c-11.921,0.83-23.182,1.616-33.924,8.135
		c-13.47,8.172-28.727,18.208-39.313,33.896l-7.995,11.814l-3.265-2.126l0.167-0.988c3.13-18.485,13.388-32.443,27.919-47.358
		c-5.044-1.441-10.143-2.15-15.522-2.151c-3.507,0-7.133,0.301-10.943,0.898c-22.989,3.598-41.036,12.427-55.173,26.99
		c-14.934,15.389-21.493,34.463-20.635,60.024c0.15,4.487,1.378,5.294,4.755,5.294c0.026,0,0.051,0,0.077,0l0.485-0.004
		c6.188-0.041,12.585-0.083,18.859-0.365c0.064-0.003,0.132-0.004,0.203-0.004c0.155,0,0.326,0.006,0.506,0.012
		c0.128,0.006,0.314,0.015,0.499,0.015c0.226,0,0.451-0.013,0.566-0.057c-0.007-0.025,0.013-0.129,0.01-0.31
		c-0.095-7.522,3.164-13.709,6.316-19.689c0.925-1.757,1.85-3.509,2.685-5.293c1.153-2.46,3.299-7.039,8.379-8.932l2.099-0.779
		l-0.207,2.308c-0.936,10.49-2.576,20.605-4.057,29.116c-0.321,1.85-0.058,2.309,0.031,2.406c0.046,0.051,0.273,0.243,1.068,0.243
		c0.277,0,0.623-0.023,1.055-0.084c2.335-0.325,4.701-0.423,6.99-0.521c1.182-0.048,2.364-0.098,3.542-0.179
		c3.895-0.263,7.858-0.452,11.855-0.452c10.817,0,21.88,1.382,32.518,6.416c5.029,2.379,9.942,5.214,14.692,7.956
		c1.754,1.013,3.512,2.027,5.284,3.026c0.228-0.687,0.373-1.423,0.524-2.182c0.203-1.026,0.413-2.087,0.839-3.149
		c6.111-15.217,15.902-27.527,24.674-37.562c1.806-2.068,3.968-3.76,6.059-5.398c0.767-0.599,1.535-1.201,2.283-1.818
		c0.79-0.65,1.666-0.976,2.505-0.976c0.841,0,1.644,0.327,2.286,0.98c1.825,1.856,0.324,3.721-0.17,4.332
		c-0.105,0.131-0.21,0.254-0.289,0.38c-9.226,14.644-16.448,30.792-22.079,49.373c-1.429,4.717-1.396,5.791,2.197,7.514
		c21.658,10.376,44.617,16.933,64.219,21.981c0.764,0.197,1.342,0.311,1.805,0.311c1.026,0,1.49-0.559,2.179-2.017
		c4.681-9.894,11.844-17.852,18.232-24.328c0.163-0.166,0.331-0.355,0.506-0.553c0.726-0.816,2.016-2.262,3.641-2.262
		c0.645,0,1.344,0.228,2.081,0.813c0.75,0.595,1.178,1.311,1.27,2.134c0.154,1.379-0.702,2.494-1.324,3.307
		c-0.197,0.256-0.418,0.543-0.497,0.706c-3.485,7.107-7.488,15.542-10.746,24.196c-0.647,1.723-0.468,2.182-0.425,2.258
		c0.021,0.039,0.239,0.419,1.717,0.562c5.221,0.612,10.354,1.882,15.32,3.109c3.928,0.97,7.987,1.971,12.03,2.631
		c0.043,0.007,0.084,0.014,0.125,0.02c4.169,0.68,8.346,1.795,12.386,2.876c2.348,0.626,4.706,1.255,7.087,1.809l2.895,0.674
		l-2.342,1.954c-2.561,2.136-5.305,2.478-7.87,2.478c-0.616,0-1.22-0.02-1.81-0.039c-0.539-0.016-1.076-0.034-1.605-0.034
		c-0.061,0-0.121,0-0.181,0.001c-0.296,0.001-0.597,0.002-0.894,0.002c-20.753,0-41.612-3.331-60.05-6.278
		c-14.005-2.372-26.168-5.113-37.074-8.763c-18.311-6.131-36.147-15.83-53.011-28.824c-8.515-6.557-18.362-10.764-29.371-12.56
		c-3.288-0.537-6.68-0.858-10.171-0.962c-3.178-0.096-6.408-0.144-9.702-0.144c-15.429,0-32.305,1.057-52.25,3.251
		c-5.136,0.566-8.019,3.001-10.771,6.485c-8.37,10.598-15.609,22.334-22.612,33.687c-1.47,2.384-2.941,4.768-4.421,7.141
		c-9.726,15.598-17.875,32.521-25.756,48.889c-1.817,3.773-3.633,7.545-5.469,11.306c-12.221,25.027-22.382,51.675-30.204,79.206
		c-1.104,3.886-2.169,7.787-3.235,11.688c-2.74,10.033-5.572,20.404-9.053,30.382c-3.951,11.325-7.348,23.044-10.633,34.38
		c-2.506,8.646-5.098,17.585-7.922,26.307c-3.17,9.793-6.265,19.801-9.255,29.479l-4.051,13.069
		c-4.505,14.491-9.01,28.982-13.458,43.488c-1.149,3.751-2.221,7.526-3.294,11.305c-2.04,7.188-4.15,14.62-6.784,21.744
		c-12.449,33.68-30.194,63.869-47.517,91.476c-3.774,6.015-7.857,11.934-11.806,17.656c-5.974,8.662-12.153,17.62-17.334,27.027
		c-4.117,7.472-8.193,14.972-12.268,22.472c-11.309,20.816-23.005,42.34-35.464,62.952c-8.923,14.764-15.801,30.56-20.446,46.948
		c-3.993,14.087-10.867,27.129-20.43,38.755c-8.964,10.899-15.219,20.306-19.686,29.602c-9.082,18.891-14.567,36.62-16.771,54.196
		c-1.705,13.603,1.171,26.606,8.551,38.647c3.03,4.944,5.494,6.886,9.203,6.886c2.155,0,4.731-0.655,8.082-1.759
		c7.269-2.387,12.32-7.532,17.667-12.978c0.923-0.939,1.847-1.88,2.784-2.808c12.9-12.768,24.077-22.801,40.541-26.169
		c9.503-1.943,18.19-7.082,26.591-12.05c4.637-2.743,9.43-5.578,14.36-7.89l0.898-0.43c1.878-0.907,4.198-2.026,6.158-2.026
		c1.133,0,2.144,0.373,2.882,1.376c2.135,2.913-0.707,5.984-2.59,8.016c-0.43,0.464-0.849,0.915-1.198,1.342
		c-13.332,16.286-30.781,25.672-53.341,28.693c-4.392,0.589-8.679,2.578-13.042,6.06c6.914,1.837,12.91,4.917,18.73,7.91
		c1.32,0.678,2.639,1.354,3.963,2.015c9.395,4.691,17.464,7.865,26.287,8.091c0.46,0.012,0.918,0.019,1.371,0.019
		c15.261,0,27.062-6.867,36.046-20.955c10.147-15.918,19.248-27.011,29.508-35.968c4.385-3.829,8.839-5.744,13.311-5.744
		c2.611,0,5.228,0.653,7.841,1.959c5.977,2.997,12.491,4.401,18.789,5.761l1.527,0.333c1.969,0.422,3.899,0.633,5.789,0.633
		c6.455,0,12.432-2.464,17.829-7.408c4.019-3.678,6.732-8.269,9.605-13.13c0.655-1.107,1.312-2.217,1.983-3.315
		c0.576-0.942,1.117-1.914,1.661-2.89c1.977-3.55,4.022-7.218,7.825-9.859l1.536-1.067l0.601,1.799
		c1.51,4.517,1.92,8.819,2.268,13.575c0.213,2.899,0.414,5.801,0.616,8.705c0.99,14.271,2.013,29.029,4.498,43.322
		c4.167,23.979,12.142,39.906,25.854,51.645c8.458,7.242,17.126,10.864,25.937,10.864c8.429,0,16.989-3.314,25.626-9.942
		c17.389-13.341,26.886-32.971,28.23-58.348c1.1-20.816-0.978-41.267-3.155-58.528c-2.412-19.119-1.493-36.237,2.808-52.332
		c3.725-13.944,10.214-26.93,16.488-39.488c1.466-2.931,2.929-5.862,4.36-8.804c0.63-1.298,1.779-2.484,2.926-3.019
		c7.899-3.671,16.728-6.969,26.027-6.969c5.603,0,11.376,1.197,17.223,4.233c7.397,3.845,13.879,7.981,19.817,12.648
		c7.46,5.86,16.555,8.827,27.082,8.827c1.089,0,2.193-0.031,3.312-0.096c13.325-0.746,23.854-8.306,32.185-23.113
		c4.543-8.073,7.689-16.975,10.732-25.584c1.822-5.155,3.707-10.487,5.88-15.62c5.511-13.015,11.213-25.547,20.37-35.869
		c5.745-6.474,11.453-9.621,17.92-9.621c3.643,0,7.527,0.998,11.795,2.963c1.074,0.493,2.14,1.005,3.206,1.514
		c1.468,0.703,2.937,1.405,4.425,2.064c11.258,4.995,21.48,7.658,31.254,8.137c0.765,0.038,1.522,0.057,2.268,0.057
		c16.19,0,27.947-8.913,36.869-27.877c3.346-7.109,5.772-14.783,8.118-22.206c2.463-7.787,5.009-15.836,8.64-23.373
		c0.764-1.588,1.498-3.198,2.234-4.809c3.175-6.953,6.457-14.14,12.422-20.221l1.835-1.87l1.018,4.686
		c0.264,1.204,0.489,2.22,0.692,3.241c5.051,25.278,11.156,54.598,19.711,82.664c5.509,18.078,13.915,38.089,34.495,49.449
		c5.165,2.854,10.209,4.255,14.951,4.255c9.152,0,17.174-5.216,22.756-15.26c6.138-11.042,7.288-23.246,7.938-34.798
		c1.096-19.434-0.09-39.053-3.621-59.978c-0.643-3.809-1.305-7.615-1.966-11.424c-5.12-29.495-10.414-59.997-6.955-91.072
		c0.046-0.405-0.001-0.914-0.051-1.454c-0.143-1.564-0.411-4.475,2.982-5.346c0.467-0.12,0.903-0.175,1.306-0.175
		c3.008,0,4.31,3.047,5.048,4.779l0.139,0.322c1.899,4.385,3.52,8.965,5.086,13.397l1.039,2.933
		c4.141,11.595,10.442,20.076,19.265,25.926c4.51,2.992,8.393,3.983,11.557,3.983c2.271,0,4.172-0.51,5.668-1.157
		c4.615-1.995,8.138-6.552,9.421-12.187c2.439-10.708,3.281-22.211,2.651-36.202c-0.548-12.157-0.576-23.102,4.642-33.927
		c10.013-20.781,25.421-37.989,47.107-52.608c0.811-0.547,1.681-0.922,2.521-1.283c1.266-0.544,2.4-1.033,3.249-2.037l-6.065-4.079
		c-7.881-5.302-15.717-10.573-23.528-15.881c-0.472-0.32-0.81-0.448-1.083-0.448c-0.347,0-0.588,0.209-0.864,0.499
		c-6.545,6.874-14.674,11.122-22.532,15.23c-1.414,0.737-2.828,1.477-4.233,2.23l-5.721,3.085
		c-10.12,5.469-20.584,11.125-31.403,15.765l-1.553,0.667l-0.373-1.693c-0.586-2.657,1.027-4.023,1.715-4.608
		c2.942-2.491,5.89-4.972,8.84-7.456c6.277-5.283,12.556-10.568,18.77-15.935c5.889-5.088,12.729-11.228,18.804-18.203
		c0.814-0.933,1.561-1.876,1.51-2.452c-0.024-0.277-0.276-0.909-1.697-2.001c-10.527-8.087-19.881-16.864-27.799-26.09
		c-12.707-14.8-23.412-31.565-31.817-49.828c-9.337-20.281-22.587-34.42-40.51-43.221c-8.729-4.285-17.962-7.763-26.892-11.123
		c-4.139-1.56-8.28-3.117-12.391-4.758c-1.311-0.524-2.397-0.801-3.391-0.801c-1.759,0-3.225,0.869-5.128,2.771
		c-4.668,4.664-9.295,7.868-14.144,9.796c-0.181,0.074-0.361,0.199-0.547,0.32c-0.431,0.277-1.216,0.778-2.089,0.778
		c-0.567,0-1.172-0.212-1.74-0.836c-1.767-1.942-0.331-4.07,0.36-5.091c1.012-1.518,1.857-2.834,2.702-4.154
		c1.669-2.604,3.394-5.296,5.282-7.822c0.588-0.788,1.686-2.26,1.584-2.644c-0.002-0.006-0.154-0.503-1.999-1.208
		c-2.511-0.956-4.668-2.694-6.753-4.379c-0.482-0.388-0.962-0.774-1.442-1.15c-11.53-8.975-18.703-18.032-22.572-28.502
		l-0.212-0.548c-0.541-1.374-1.282-3.254-0.552-4.988c0.412-0.98,1.208-1.711,2.365-2.169c0.508-0.198,0.983-0.286,1.427-0.286
		c2.481,0,3.985,2.722,4.691,4.003c6.835,12.367,16.641,21.518,29.979,27.977c8.433,4.083,17.49,6.976,26.248,9.777
		c7.581,2.421,15.419,4.926,22.883,8.204c0.167,0.072,0.343,0.149,0.538,0.149c0.382,0,0.842-0.292,1.479-1.479
		c2.808-5.229,6.858-9.483,10.432-13.06c8.168-8.174,15.729-15.283,25.563-19.543c0.151-0.067,0.316-0.156,0.491-0.246
		c0.54-0.285,1.496-0.787,2.487-0.787c0.73,0,1.478,0.272,2.094,1.102c1.737,2.328-0.203,4.398-1.031,5.284l-0.333,0.361
		c-7.934,8.948-14.539,19.232-20.926,29.174l-2.162,3.363c-1.073,1.662-1.51,2.739-1.374,3.388c0.13,0.627,0.902,1.358,2.431,2.308
		c14.085,8.763,23.277,17.606,29.807,28.673c4.325,7.333,8.585,14.757,12.661,22.068c0.555,0.996,0.877,1.455,1.064,1.655
		c0.182-0.145,0.533-0.486,1.134-1.29c5.624-7.517,11.95-14.261,16.832-19.297l0.469-0.49c1.523-1.598,3.247-3.412,6.154-3.531
		l1.212-0.052l0.232,1.237c0.294,1.565,0.101,2.809-0.671,4.295l-0.841,1.62c-4.466,8.588-9.085,17.468-13.299,26.355
		c-0.259,0.548-0.586,1.109-0.923,1.678c-1.287,2.188-1.954,3.507-0.71,5.2c8.308,11.304,17.523,21.522,27.39,30.369
		c0.36,0.323,0.617,0.528,0.797,0.661c0.068-0.197,0.148-0.474,0.237-0.872c0.412-1.832,0.898-3.644,1.385-5.455
		c0.635-2.366,1.292-4.811,1.755-7.252c0.863-4.54,2.231-9.698,7.565-13.439l1.999-1.401l0.217,2.487
		c0.679,7.828,1.746,17.036,4.507,25.99l0.403,1.313c3.252,10.577,6.322,20.57,14.382,27.688c3.908,3.451,8.029,6.804,12.014,10.042
		c4.249,3.454,8.641,7.026,12.813,10.749c3.114,2.778,5.828,4.115,8.861,4.115c2.03,0,4.204-0.599,6.737-1.765
		c32.561-14.967,63.992-30.323,90.603-53.548C1127.963,440.069,1136.916,416.02,1130.445,388.273z M1105.535,394.017
		c-0.405-1.969-1.92-3.891-4.007-3.89c-0.159,0-0.322,0.011-0.488,0.035c-2.35,0.335-2.942,2.895-3.227,4.124
		c-1.517,6.543-4.089,13.024-7.86,19.808c-8.058,14.496-17.715,28.977-33.675,36.704c-4.476,2.168-8.955,3.254-13.287,3.254
		c-3.516,0-6.936-0.715-10.183-2.148c-7.705-3.403-13.792-10.528-16.704-19.543c-0.113-0.351-0.158-0.898-0.202-1.428
		c-0.104-1.231-0.234-2.766-1.344-3.718c-0.564-0.484-1.283-0.73-2.144-0.73c-0.182,0-0.37,0.011-0.565,0.033
		c-3.329,0.371-4.032,3.69-4.499,5.888l-0.195,0.891c-1.436,6.132-0.205,11.824,0.986,17.328c0.453,2.095,0.923,4.264,1.225,6.394
		c0.218,1.54,1.226,2.699,2.117,3.723c0.614,0.703,1.31,1.502,1.283,1.996c-0.015,0.282-0.283,0.684-0.754,1.129
		c-0.718,0.679-1.541,0.928-2.551,0.928c-0.938,0-2.035-0.215-3.361-0.501c-0.906-0.201-1.802-0.407-2.67-0.492
		c-1.673-0.199-3.313-0.636-5.175-1.405c-8.426-3.488-14.803-9.453-20.675-19.342l-2.267-3.813l-0.385,4.505
		c-0.707,8.264-0.968,14.602,2.115,20.923c6.854,14.032,18.557,21.092,30.785,23.084c2.506,0.409,5.033,0.605,7.546,0.605
		c4.618,0,9.184-0.663,13.464-1.887c21.663-6.197,41.468-19.01,58.867-38.084c12.26-13.445,18.679-27.79,19.622-43.85
		c0.167-2.831-0.491-5.354-1.13-7.792C1105.963,395.838,1105.725,394.933,1105.535,394.017z M822.97,220.188
		c-0.567,0-1.111,0.193-1.53,0.341c-0.218,0.077-0.438,0.166-0.642,0.192c-14.139,1.91-24.976,10.696-35.513,19.234
		c-7.858,6.369-14.02,12.891-18.835,19.938c-2.855,4.176-2.563,8.504-2.018,12.576c0.373,2.797,1.653,4.76,3.606,5.527
		c0.306,0.121,0.623,0.206,0.947,0.258c0.257,0.042,0.519,0.063,0.784,0.063c1.544,0,3.203-0.706,4.748-2.06
		c3.796-3.325,8.099-7.093,11.626-11.747c9.794-12.901,20.893-27.526,35.943-37.088l0.334-0.207
		c1.006-0.614,2.526-1.541,2.821-3.659l0.013-0.214c0.001-0.49,0.002-1.976-1.027-2.741
		C823.823,220.294,823.39,220.188,822.97,220.188z M871.589,501.281c0.1,0.016,0.202,0.03,0.303,0.044
		c0.148,0.018,0.299,0.027,0.455,0.027c4.281,0,11.265-6.789,12.187-11.086c0.515-2.412-0.67-4.935-1.757-6.623
		c-2.521-3.919-6.83-7.092-10.481-7.717c-0.635-0.113-1.299-0.182-1.973-0.182c-3.315,0-6.826,1.679-7.975,8.092
		c-0.816,4.565,0.18,9.411,2.665,12.96C866.76,499.288,869.084,500.872,871.589,501.281z M304.616,775.645
		c-2.001-1.631-3.908-2.446-5.787-2.446c-1.934,0-3.839,0.864-5.782,2.591c-7.65,6.789-12.721,15.643-16.874,23.41
		c-0.331,0.617-0.668,1.229-1.008,1.842c-2.25,4.067-4.576,8.27-4.489,13.828l0.024,1.56l1.49-0.11
		c4.6-0.333,7.336-3.139,9.751-5.615c0.903-0.925,1.755-1.8,2.667-2.518c7.014-5.525,14.958-12.405,20.698-21.512
		C306.383,784.962,309.663,779.757,304.616,775.645z M898.061,623.817c2.225,4.293,4.877,8.726,10.581,11.628l3.031,1.542
		l-1.021-3.363c-0.4-1.318-0.775-2.519-1.126-3.642c-0.69-2.208-1.288-4.122-1.806-6.062c-2.002-7.486-3.185-15.324-4.33-22.904
		c-0.745-4.936-1.515-10.036-2.506-15.024l-0.102-0.533c-0.358-1.909-1.005-5.338-4.507-5.338c-0.289,0-0.598,0.023-0.929,0.073
		c-1.57,0.237-6.343,0.951-7.622,5.963c-0.507,1.998-0.64,4.14-0.372,6.033C888.788,602.347,892.292,612.689,898.061,623.817z
		 M251.845,844.125c-2.003-1.447-4.146-2.686-6.371-3.836c-2.556-1.676-5.26-3.174-8.197-4.16
		c-3.752-1.259-8.288-2.113-12.991-2.113c-5.764,0-11.78,1.283-16.906,4.675c-1.754,1.162-3.316,2.546-4.71,4.107
		c-3.006,2.787-5.415,6.235-6.769,10.353c-3.842,11.693-2.407,24.211,3.936,34.345c6.058,9.671,15.742,15.79,26.648,16.867
		c1.696,0.244,3.379,0.368,5.014,0.368c8.772,0,21.027-3.482,29.597-20.07C269.543,868.306,266.431,854.668,251.845,844.125z
		 M419.133,1031.186c-1.372,0.001-2.583,0.933-3.423,1.584c-0.217,0.167-0.433,0.333-0.65,0.484c-1.946,1.372-3.648,2.07-4.989,2.07
		c-0.357,0-0.688-0.049-0.991-0.149c-0.996-0.331-1.768-1.27-2.291-2.789c-3.015-8.731-3.301-17.626-0.851-26.439
		c0.625-2.248,1.479-4.51,2.303-6.696c0.82-2.176,1.669-4.426,2.324-6.726c0.093-0.329,0.207-0.673,0.324-1.024
		c0.696-2.095,1.86-5.597-1.417-7.741c-1.174-0.767-2.408-1.143-3.644-1.143c-2.177,0-4.362,1.17-6.244,3.439
		c-1.789,2.154-3.398,4.491-4.954,6.748c-0.792,1.15-1.585,2.303-2.403,3.43c-0.294,0.406-0.561,0.844-0.832,1.286
		c-0.579,0.948-1.072,1.754-1.883,2.316c-2.207-8.21-3.946-16.677-5.632-24.879c-2.509-12.222-5.105-24.857-9.305-37.027
		l-1.71-4.957l-1.043,5.193c-0.478,2.374-1.052,4.746-1.627,7.116c-1.266,5.222-2.573,10.621-2.818,16.042
		c-1.081,23.785,2.107,46.98,5.466,68.703c2.256,14.597,8.051,24.954,17.717,31.663c1.79,1.242,3.551,2.007,5.298,2.293
		c0.52,0.085,1.039,0.127,1.557,0.127c2.323,0,4.629-0.853,6.95-2.556c7.543-5.542,13.159-13.084,17.17-23.061l0.199-0.474
		c0.601-1.413,1.721-4.038-0.316-5.86C420.633,1031.449,419.86,1031.186,419.133,1031.186z M734.228,743.623
		c-0.378-0.14-0.73-0.201-1.058-0.201c-1.506,0-2.479,1.289-3.049,2.045c-0.198,0.264-0.392,0.533-0.611,0.746
		c-6.794,6.625-15.301,10.106-23.735,10.106c-4.605,0-9.186-1.038-13.455-3.168c-5.496-2.737-10.283-6.62-15.067-12.215
		l-2.551-2.984l0.041,4.025c0.096,9.626,3.705,17.564,10.726,23.589c6.416,5.508,12.803,8.779,19.268,9.834
		c1.54,0.251,3.085,0.377,4.635,0.377c3.966,0,7.971-0.821,12.037-2.456c9.864-3.964,16.872-14.429,15.947-23.917
		C737.169,747.495,736.886,744.608,734.228,743.623z M589.155,840.457c-0.688-0.464-1.366-0.645-2.01-0.645
		c-1.743,0-3.24,1.33-3.997,2.004c-4.055,3.6-8.828,4.417-13.63,4.417c-1.418,0-2.838-0.071-4.243-0.163
		c-9.066-0.589-16.671-4.867-22.592-12.707l-0.276-0.393c-0.481-0.702-1.312-1.934-2.815-1.934c-0.234,0-0.485,0.03-0.754,0.097
		c-1.941,0.484-2.239,2.33-2.382,3.215c-0.032,0.197-0.06,0.394-0.108,0.576c-1.005,3.852,0.344,7.23,1.536,10.212l0.499,1.265
		c4.638,12.145,11.977,19.79,21.223,22.106l0.077,0.021l0.081,0.01c1.292,0.167,2.585,0.249,3.872,0.249
		c6.971,0,13.759-2.411,19.073-6.857c4.93-4.126,7.944-9.499,8.486-15.132C591.351,845.167,591.642,842.136,589.155,840.457z
		 M512.319,729.716c-11.742-8.914-24.735-13.383-38.831-13.382c-7.863,0-16.071,1.392-24.592,4.178
		c-27.608,9.023-45.934,24.998-56.024,48.832c-8.395,19.831-9.607,39.711-3.604,59.093c2.895,9.344,4.9,12.502,9.328,14.694
		l2.491,1.235l-0.445-2.851c-1.837-11.759-0.603-23.442,3.663-34.727c6.018-15.915,14.02-26.093,25.185-32.026
		c5.327-2.831,10.005-4.237,14.353-4.237c3.405,0,6.609,0.862,9.761,2.577c3.412,1.851,5.79,4.895,8.544,8.419l1.679,2.144
		l1.089-1.671c11.877-18.233,27.587-37.362,54.061-41.018l1.946-0.267l-0.807-1.853C518.188,734.416,515.328,732,512.319,729.716z"
		/>
</g>
</svg>
